<?xml version="1.0" encoding="UTF-8"?>
<svg id="Capa_2" data-name="Capa 2" xmlns="http://www.w3.org/2000/svg" viewBox="0 0 1070 416.67">
  <defs>
    <style>
      .cls-1 {
        fill: #394b38;
      }

      .cls-2 {
        fill: #568a3f;
      }

      .cls-3 {
        fill: #3f7937;
      }

      .cls-4 {
        fill: #539836;
      }
    </style>
  </defs>
  <g>
    <path class="cls-1" d="m109.56,87.37c-4.45,7.84-8.23,14.79-12.28,21.59-7.68,12.89-24.83,13.92-33.85,2.06-7.51-9.87-14.92-19.83-23.69-31.49-.44,6.6-.94,11.37-1.05,16.16-.55,24.87-.98,49.75-1.5,74.63-.24,11.44-2.77,13.98-14.18,14.48-.89.04-1.78.06-2.67.1-13.36.61-14.67.36-14.29-14.24.6-23.38,3.14-46.68,2.7-70.09-.17-8.9.89-17.76,2.06-26.57,1.18-8.84,1.47-17.7,1.34-26.62-.11-8.02,1.59-9.58,9.74-10.67,2.64-.35,5.27-.79,7.87-1.34,10.86-2.31,12.81-1.59,19.14,7.91,5.92,8.87,11.61,17.9,17.58,26.73,2.15,3.18,4.86,5.96,7.25,8.98,2.63,3.33,4.55,2.7,6.72-.66,8.21-12.69,16.93-25.07,24.78-37.97,4.05-6.65,9.01-9.72,16.7-9,4.42.41,8.91-.03,13.33.39,5.34.51,7.42,2.61,7.34,8.06-.2,13.88,1.67,27.83-1.41,41.66-.89,3.99-.78,8.28-.67,12.41.67,25.21-1.57,50.34-2.11,75.52-.21,9.8-1.39,10.82-10.79,10.88-4.14.03-8.29.28-12.42.07-5.97-.3-7.4-1.45-7.83-7.35-.41-5.6-.38-11.28.07-16.87,1.64-20.68.68-41.49,3.31-62.12.22-1.71.64-3.54-1.2-6.63Z"/>
    <path class="cls-1" d="m632.45,105.75c.23-22.83,1.74-45.6,3.06-68.38.1-1.76.47-3.52.81-5.26,2.33-12.06,5.66-15.01,17.59-15.61,42.31-2.16,80.14,31.37,82.92,73.69,1.14,17.3-.6,34.24-6.73,50.67-4.95,13.26-12.62,24.18-25.22,30.97-15.47,8.33-31.76,14.52-49.2,17.41-4.18.69-8.31.5-12.34-.64-8.11-2.29-12.41-7.77-12.28-16.21.35-22.22.91-44.43,1.38-66.65Zm29.65-2.59c.08,15.72-.82,31.67-1.6,47.63-.29,5.88.36,6.12,5.94,5.04,9.2-1.78,17.18-6.19,24.88-11.26,6.24-4.1,10.21-9.92,12.23-16.92,5.12-17.73,6.46-35.06-2.08-52.67-5.88-12.14-14.07-21.01-25.91-26.78-8.76-4.27-11.81-2.37-11.86,7.67-.07,15.69-.8,31.35-1.61,47.28Z"/>
    <path class="cls-1" d="m162,103.26c0-17.77,0-35.55,0-53.32,0-2.96,0-5.93.1-8.89.34-9.57,2.88-12.8,12.28-14.38,11.7-1.96,23.5-3.16,35.39-3.2,7.71-.03,15.43-.28,23.13-.04,6.27.2,6.9,1.09,7.87,7.25.64,4.09,1.59,8.14,2.02,12.25.61,5.82-.54,7.75-6.39,8.47-7.03.87-14.18.81-21.28,1.15-5.63.26-11.29.19-16.87.86-5.63.68-6.41,1.73-6.09,7.59.66,12.13,1.73,24.23,2.35,36.36.23,4.56,2.67,5.44,6.43,5.1,7.68-.7,15.34-1.57,23.03-2.06,7.75-.5,8.61.32,9.72,7.96.64,4.4,1.35,8.81,1.58,13.25.36,6.99-.86,8.41-7.76,9.01-8.57.74-17.18,1.03-25.75,1.81-7.09.64-7.23.99-7.21,8.18.01,4.45,0,8.9.14,13.34.23,7.22,1.32,8.3,8.46,7.76,10.9-.83,21.82-1.04,32.61-3.66,10.53-2.55,16.2,2.28,15.8,13.07-.69,18.57,3.61,15.96-16.44,18.21-14.39,1.62-29,1.09-43.35,3.78-4.67.87-9.43-.6-14.07-1.66-6.46-1.48-10.23-5.52-11.86-11.87-2.08-8.12-2.3-16.46-2.69-24.72-.83-17.17-1.15-34.38-1.16-51.58Z"/>
    <path class="cls-1" d="m811.57,104.21c0-22.23-.06-44.46.03-66.68.04-9.32.79-9.98,10.06-10.51,2.07-.12,4.15-.05,6.22-.05,10.17-.01,11.57,1.18,12.24,11.65.68,10.64,1.22,21.3,1.56,31.96.56,17.47,1.07,34.94,1.28,52.42.13,10.65-.54,21.3-.5,31.95.03,7.46.3,7.46,7.48,6.95,8.27-.58,16.54-1.26,24.82-1.74,5.84-.34,6.18,0,6.36,5.56.16,5.03.28,10.07.18,15.1-.12,5.59-1.81,7.53-7.4,7.85-15.38.89-30.77,1.78-46.16,2.2-10.42.28-14.64-3.67-15.55-13.87-1.5-16.83-.17-33.73-.72-50.59-.24-7.39-.04-14.8-.04-22.2.05,0,.1,0,.14,0Z"/>
    <path class="cls-1" d="m888.22,114.91c0-22.23-.06-44.46.03-66.68.04-9.32.79-9.98,10.06-10.51,2.07-.12,4.15-.05,6.22-.05,10.17-.01,11.57,1.18,12.24,11.65.68,10.64,1.22,21.3,1.56,31.96.56,17.47,1.07,34.94,1.28,52.42.13,10.65-.54,21.3-.5,31.95.03,7.46.3,7.46,7.48,6.95,8.27-.58,16.54-1.26,24.82-1.74,5.84-.34,6.18,0,6.36,5.56.16,5.03.28,10.07.18,15.1-.12,5.59-1.81,7.53-7.4,7.85-15.38.89-30.77,1.78-46.16,2.2-10.42.28-14.64-3.67-15.55-13.87-1.5-16.83-.17-33.73-.72-50.59-.24-7.39-.04-14.8-.04-22.2.05,0,.1,0,.14,0Z"/>
    <path class="cls-1" d="m793.96,104.22c-1.27,23.05-2.5,46.09-3.83,69.14-.37,6.5-1.54,7.54-8.32,7.46-5.62-.06-11.24-.27-16.84-.7-4.9-.37-6.21-2-5.22-7.08,2.22-11.43,1.97-22.95,1.63-34.45-.26-8.97,1.28-17.7,2.42-26.5.3-2.35.68-4.63.44-7.04-.92-9.47-.84-9.64-10.63-11.07-3.67-.53-5.26-2.2-5.32-5.7,0-.3.01-.59,0-.89-1.03-18.53-.35-19.32,18.21-20.35,4.73-.26,9.48-.53,14.21-.47,7.42.1,11.94,3.61,12.5,11.06.67,8.82.16,17.73.16,26.6.2,0,.4,0,.6,0Z"/>
    <path class="cls-1" d="m852.57,105.32c1.06.79,1.21,1.82.8,3.01-1.09-.78-1.44-1.76-.8-3.01Z"/>
    <path class="cls-1" d="m766.44,1.25c-11.73-.25-23.04,12.29-23.4,25.91-.36,13.83,16.4,32.07,29.48,32.08,14.41.01,28.23-14.9,28.12-30.34-.1-15.46-14.68-27.25-34.2-27.65Zm21.75,34.92c-1.58,7.1-8.67,12.12-15.8,12.15-7.13.03-14.24-5-15.87-12.07-.62-2.72,3.56-3.87,4.18-1.15,1.2,5.23,6.39,8.91,11.68,8.89,5.29-.02,10.45-3.72,11.61-8.96.61-2.73,4.79-1.57,4.18,1.15Z"/>
    <path class="cls-1" d="m1063.37,101.84c-.5,14.95-5.3,36.63-19.54,55.37-17.17,22.6-37.65,25.81-60.75,19.28-8.96-2.53-16.66-8.76-21.03-18-10.82-22.85-12.09-46.16-3.56-69.91,3.41-9.49,7.73-18.57,14.03-26.6,4.27-5.45,6.11-12.25,8.29-18.52,8.08-23.25,39.84-29.56,59.88-10.17,16.99,16.43,23.45,37.26,22.69,68.55Zm-77.51,2.17c-4.93,12.85-3.84,24.91,1.06,36.85,1.14,2.77,2.26,5.49,5.26,6.84,6.35,2.86,19.07.47,24.04-4.71,4.33-4.51,7.75-9.74,10.92-15.08,2.58-4.34,1.96-5.61-3.08-6.32-7.16-1-13.75-3.46-19.98-6.98-5.89-3.33-11.7-6.79-18.23-10.6Zm19.9-37.26c-.53,15.53,11.54,23.03,20.87,24.66,5.41.94,6.08.34,6.49-5.2.82-10.97-4.56-19.92-9.81-28.76-4.48-7.54-11.07-7.25-15.85.14-1.88,2.91-2.3,5.98-1.7,9.15Z"/>
  </g>
  <g>
    <path class="cls-2" d="m170.2,405.36s4.88-64.03-41.99-85.04c-46.87-21.01-73.83-25.22-73.83-25.22,0,0,11.14,55.4,34.99,78.37,23.85,22.97,80.83,31.89,80.83,31.89Z"/>
    <path class="cls-3" d="m170.2,405.36s-3.58-13.37-33.22-42.85c-29.64-29.47-82.61-67.42-82.61-67.42l37.02,39.87-13.5-2.11s42.24,25.92,45.51,29.44c3.27,3.53-16.81,1.47-16.81,1.47,0,0,35.35,13.63,36.06,16,.7,2.38-10.93,3.44-10.93,3.44,0,0,30.63,13.42,38.48,22.14Z"/>
    <path class="cls-4" d="m170.2,405.36s-13.34-41.42-16.17-44.47c0,0,.04,9.43-2.88,8.73s-19.03-27.02-19.03-27.02c0,0,2.1,11.62-1.39,11.14-3.49-.48-33.84-40.53-33.84-40.53,0,0,4.98,11.34,1.81,12.96-3.16,1.62-44.32-31.08-44.32-31.08,0,0,55.51,48.84,71.88,62.8,16.37,13.96,43.94,47.47,43.94,47.47Z"/>
  </g>
  <g>
    <path class="cls-2" d="m869.08,405.51s63.08,12.04,89.22-32.18c26.14-44.21,33.35-70.53,33.35-70.53,0,0-56.3,4.85-81.81,25.97-25.5,21.12-40.76,76.74-40.76,76.74Z"/>
    <path class="cls-3" d="m869.08,405.51s13.69-2.05,46.31-28.19c32.62-26.14,76.27-74.52,76.27-74.52l-43.78,32.31,3.61-13.18s-30.49,39.06-34.36,41.92c-3.87,2.86.43-16.87.43-16.87,0,0-17.51,33.6-19.95,34.03s-2.19-11.25-2.19-11.25c0,0-16.78,28.93-26.32,35.75Z"/>
    <path class="cls-4" d="m869.08,405.51s42.66-8.6,46.01-11.07c0,0-9.37-1.02-8.35-3.84,1.02-2.82,28.98-15.87,28.98-15.87,0,0-11.79.78-10.91-2.64.87-3.41,44.07-29.08,44.07-29.08,0,0-11.83,3.67-13.08.34-1.25-3.33,35.86-40.55,35.86-40.55,0,0-54.76,49.68-70.47,64.38-15.71,14.7-52.1,38.33-52.1,38.33Z"/>
  </g>
  <g>
    <path class="cls-1" d="m847.54,305.71c3.18,16.47,3.35,41.39-7.55,65.44-13.14,29-34.74,37.64-61.64,36.26-10.43-.53-20.41-5.43-27.5-14.44-17.54-22.3-24.75-47.47-21.35-75.58,1.36-11.23,3.82-22.24,8.7-32.6,3.31-7.02,3.63-14.93,4.44-22.32,3.03-27.44,36.2-42.28,62.96-26.08,22.69,13.73,34.95,34.9,41.93,69.32Zm-84.25,21.72c-2.18,15.28,2.02,28.2,10.36,40.04,1.93,2.74,3.85,5.44,7.46,6.17,7.66,1.55,20.97-4.24,25.12-11.15,3.61-6.01,6.04-12.59,8.18-19.22,1.74-5.39.74-6.63-4.94-6.14-8.08.69-15.9-.35-23.59-2.65-7.27-2.17-14.49-4.51-22.59-7.04Zm12.47-45.73c3.3,17.12,18.38,22.31,28.99,21.76,6.15-.32,6.73-1.15,5.8-7.31-1.84-12.21-9.96-20.65-17.9-29.01-6.78-7.13-13.92-5.16-17.31,4.11-1.33,3.65-1.03,7.11.42,10.44Z"/>
    <path class="cls-1" d="m301.08,385.24c.12,5.99.25,4.42.35,9.98.14,8.37-5.13,16.06-13.14,18.51-4.72,1.44-9.56,1.71-14.47.9-19.56-3.24-37.84-10.18-55.2-19.53-14.14-7.62-22.75-19.87-28.3-34.75-6.88-18.43-8.83-37.44-7.55-56.85,3.12-47.47,45.57-85.1,93.04-82.67,13.65.7,17.26,4.11,19.89,18.32.39,2.13.79,5.65.91,7.81.13,2.28.27,4.56.4,6.83.5,8.38-6.17,15.45-14.56,15.45h-13.38c-2.33,0-4.24-1.87-4.25-4.2,0-.01,0-.03,0-.04-.05-11.26-3.48-13.4-13.3-8.61-13.29,6.48-22.47,16.42-29.07,30.05-9.57,19.76-8.07,39.2-2.33,59.1,2.26,7.85,6.73,14.38,13.72,18.98,8.38,5.51,17.06,10.3,26.99,12.42,0,0-.08.29,0,.31,14,4,38-2,40.26,8Z"/>
    <path class="cls-1" d="m491.03,168.39c.11,5.33.23,3.94.31,8.89.13,7.47-4.57,14.32-11.71,16.5-4.2,1.28-8.52,1.52-12.9.8-17.43-2.88-33.73-9.07-49.2-17.41-12.6-6.79-20.27-17.7-25.22-30.97-6.13-16.43-7.87-33.37-6.73-50.67,2.78-42.31,40.62-75.85,82.92-73.69,12.17.62,15.39,3.67,17.73,16.33.35,1.9.7,5.04.82,6.97.12,2.03.24,4.06.36,6.09.44,7.47-5.5,13.77-12.98,13.77h-11.93c-2.07,0-3.78-1.67-3.79-3.75v-.04c-.04-10.04-3.1-11.94-11.86-7.67-11.84,5.77-20.03,14.64-25.91,26.78-8.53,17.61-7.19,34.94-2.08,52.67,2.02,6.99,6,12.82,12.23,16.92,7.48,4.91,15.21,9.18,24.06,11.06,0,0-.07.27,0,.28,12.48,3.57,33.87-1.78,35.88,7.14Z"/>
    <path class="cls-1" d="m357.33,116.92c-1.69-3.2-2.12-5.66.17-8.86,10.54-14.75,13.3-31.14,10.86-49.01-3.5-25.57-17.53-42.2-42.51-48.83-11.29-2.99-22.88-2.88-34.41-2.81-6.52,0-13.08-.44-19.55.12-8.03.69-9.43,2.64-9.84,10.64-1.03,20.42-1.27,40.85-1.52,61.28-.35,29.62-.2,59.23,1.67,88.81.45,7.06.81,7.49,7.9,7.26,4.73-.16,9.45-.73,14.17-1.11,5.91-.48,7.03-1.28,6.48-6.86-.67-6.85.33-13.61.16-20.43-.19-7.92.12-7.98,8.55-8.39,8.87-.43,17.74-.63,25.93-4.88,3.09-1.59,5.76-.23,7.8,2.35,3.33,4.2,5.94,8.84,8.44,13.57,4.01,7.58,8.03,15.17,12.33,22.59,2.75,4.76,4.79,5.43,9.49,3.19,3.97-1.91,7.95-3.87,11.45-6.73,7.22-5.92,7.69-7.48,2.94-15.51-7.1-11.98-14.02-24.06-20.51-36.39Zm-48.23-9.03c-2.85.61-5.83.64-8.75.93-8.35.87-9.61-2.34-9.42-7.82.08-2.39,1.31-3.73,3.55-4.38,4.94-1.44,13.74,1.49,16.68,5.62,2.15,3,1.6,4.86-2.06,5.65Zm28.36-21.95c-7.64-8.68-17.54-12.24-27.76-15.35-4.88-1.49-9.89-1.56-14.84-2.25-3.81-.53-5.78-2.28-5.77-6.32.01-7.38-.23-14.76-.33-22.14-.03-2.74,1.01-4.4,4.11-4.47,9.47-.19,18.82.01,28,3.07,7.6,2.54,12.63,7.07,15.1,14.77,3.37,10.5,5.06,21.02,1.49,32.69Z"/>
    <path class="cls-1" d="m621.37,177.53c-1.24-10.6-2.47-21.21-4.12-31.75-2.96-19.04-3.83-38.31-6.94-57.34-3.3-20.23-14.33-33.75-33.11-41.66-13.95-5.88-28.36-5.5-42.88-4.43-12.52.93-13.51,2.61-10.23,15.08.23.85.26,1.76.51,2.61,2.6,8.91,5,10.65,14.02,8.83,10.81-2.18,20.38.39,29.78,5.7,7.57,4.28,9.81,11.5,12.21,18.84.73,2.23-.49,3.36-2.54,3.67-1.76.26-3.56.21-5.32.46-16.16,2.37-32.25,5.1-46.37,14.1-16.44,10.49-27.38,24.23-26.51,45.06.51,12.08,5.99,20.71,16.49,26.5,5.63,3.1,11.83,4,17.96,4.72,20.01,2.36,37.85-1.39,50.26-19.2.95-1.35,1.8-3.15,4.71-3.01.93,4.93,1.9,10.05,2.85,15.18.77,4.1,3.23,6.13,7.39,6.26,4.43.15,8.87.63,13.3.53,6.87-.15,9.36-3.14,8.54-10.15Zm-60.14-27.16c-2.19,1.5-4.38,3.09-6.21,4.98-5.7,5.9-12.5,6.01-19.67,3.91-5.3-1.55-6.49-4.13-4.47-9.33,1.52-3.92,4.02-7.35,7.06-10.07,10.51-9.4,23.01-13.7,38.04-14-2.16,10.81-6.49,18.84-14.75,24.51Z"/>
    <path class="cls-1" d="m721.13,396.02c.14,8.37-5.13,16.06-13.14,18.51-4.72,1.44-9.56,1.71-14.47.9-19.57-3.24-37.85-10.18-55.2-19.53-14.14-7.62-22.75-19.87-28.3-34.75-6.89-18.44-8.83-37.45-7.55-56.86,3.12-47.47,45.57-85.09,93.03-82.67,13.65.7,17.27,4.11,19.9,18.32.39,2.13.78,5.65.91,7.81.13,2.28.27,4.56.4,6.84.5,8.38-6.17,15.45-14.56,15.45h-13.38c-2.33,0-4.24-1.88-4.26-4.21v-.04c-.04-11.26-3.47-13.4-13.3-8.61-13.28,6.48-22.47,16.43-29.07,30.05-9.57,19.76-8.07,39.2-2.33,59.09,2.26,7.85,6.72,14.38,13.72,18.99,8.38,5.51,17.07,10.3,26.99,12.41,0,0-.08.29,0,.32,14,4,38-2,40.26,8,.12,5.98.25,4.42.35,9.98Z"/>
    <path class="cls-1" d="m429.28,320.28c3.59,15.39,7.22,30.77,10.83,46.15.74.02,1.48.05,2.22.07,7.45-17.94,14.11-36.17,20.41-55.19l12.32-40.97c3.27-10.8,6.57-21.6,9.62-32.46,2.46-8.74,3.27-9.5,12.43-9.28,19.17.47,21.08,3.04,16.8,21.9-7.96,35.08-20.76,68.65-31.66,102.82-4.96,15.55-11.93,30.28-17.65,45.52-3.07,8.17-6.37,10.17-15.11,10.1-3.66-.03-7.31,0-10.97,0,0,.04,0,.07,0,.11-3.33,0-6.65-.01-9.98,0-9.65.04-12.26-1.54-15.14-10.96-4.96-16.21-8.8-32.7-11.99-49.35-6.81-35.57-15.77-70.66-24.13-105.87-.38-1.61-.9-3.2-1.3-4.81-.94-3.77.93-5.89,4.41-6.31,7.61-.91,15.26-.38,22.88.08,4.1.25,5.13,3.42,6.03,6.85,2.97,11.24,6.17,22.43,9.24,33.64l10.75,47.96Z"/>
    <path class="cls-1" d="m577.61,333.1c-1.27,23.05-2.5,46.09-3.83,69.14-.37,6.5-1.54,7.54-8.32,7.46-5.62-.06-11.24-.27-16.84-.7-4.9-.37-6.21-2-5.22-7.08,2.22-11.43,1.97-22.95,1.63-34.45-.26-8.97,1.28-17.7,2.42-26.5.3-2.35.68-4.63.44-7.04-.92-9.47-.84-9.64-10.63-11.07-3.67-.53-5.26-2.2-5.32-5.7,0-.3.01-.59,0-.89-1.03-18.53-.35-19.32,18.21-20.35,4.73-.26,9.48-.53,14.21-.47,7.42.1,11.94,3.61,12.5,11.06.67,8.82.16,17.73.16,26.6.2,0,.4,0,.6,0Z"/>
    <path class="cls-1" d="m550.09,230.14c-11.73-.25-23.04,12.29-23.4,25.91-.36,13.83,16.4,32.07,29.48,32.08,14.41.01,28.23-14.9,28.12-30.34-.1-15.46-14.68-27.25-34.2-27.65Zm21.75,34.92c-1.58,7.1-8.67,12.12-15.8,12.15-7.13.03-14.24-5-15.87-12.07-.62-2.72,3.56-3.87,4.18-1.15,1.2,5.23,6.39,8.91,11.68,8.89,5.29-.02,10.45-3.72,11.61-8.96.61-2.73,4.79-1.57,4.18,1.15Z"/>
    <path class="cls-1" d="m357.61,333.1c-1.27,23.05-2.5,46.09-3.83,69.14-.37,6.5-1.54,7.54-8.32,7.46-5.62-.06-11.24-.27-16.84-.7-4.9-.37-6.21-2-5.22-7.08,2.22-11.43,1.97-22.95,1.63-34.45-.26-8.97,1.28-17.7,2.42-26.5.3-2.35.68-4.63.44-7.04-.92-9.47-.84-9.64-10.63-11.07-3.67-.53-5.26-2.2-5.32-5.7,0-.3.01-.59,0-.89-1.03-18.53-.35-19.32,18.21-20.35,4.73-.26,9.48-.53,14.21-.47,7.42.1,11.94,3.61,12.5,11.06.67,8.82.16,17.73.16,26.6.2,0,.4,0,.6,0Z"/>
  </g>
  <path class="cls-1" d="m353.28,246.09c-1.15,12.25-3.62,23.95-14.77,31.99-7.25,5.22-10.06,5.65-15.02,2.25-5.61-3.84-7.77-10.5-5.42-16.9.44-1.19,1.06-2.34,1.77-3.4,3.66-5.41,5.55-11.47,7.32-17.6,2.63-9.12,7.22-12.35,15.45-11.05,7.37,1.17,11.09,6.29,10.67,14.71Z"/>
</svg>