<?xml version="1.0" encoding="UTF-8"?>
<svg id="Capa_2" data-name="Capa 2" xmlns="http://www.w3.org/2000/svg" viewBox="0 0 1070 1070">
  <defs>
    <style>
      .cls-1 {
        fill: #394b38;
      }

      .cls-2 {
        fill: #568a3f;
      }

      .cls-3 {
        fill: #c55d38;
      }

      .cls-4 {
        fill: #3f7937;
      }

      .cls-5 {
        fill: #539836;
      }
    </style>
  </defs>
  <g>
    <path class="cls-1" d="m291.73,419.6c11.53-.07,23.12-.19,34.41,2.81,24.99,6.63,39.02,23.26,42.51,48.83,2.44,17.87-.32,34.26-10.86,49.01-2.29,3.2-1.85,5.66-.17,8.87,6.49,12.33,13.41,24.41,20.51,36.39,4.75,8.03,4.28,9.58-2.94,15.5-3.49,2.86-7.47,4.83-11.45,6.73-4.7,2.25-6.73,1.57-9.49-3.18-4.3-7.42-8.32-15.01-12.33-22.6-2.5-4.72-5.11-9.36-8.43-13.56-2.05-2.59-4.72-3.95-7.8-2.35-8.19,4.25-17.06,4.45-25.93,4.88-8.43.41-8.74.47-8.55,8.39.17,6.81-.83,13.58-.16,20.42.55,5.58-.57,6.39-6.48,6.86-4.72.38-9.44.96-14.17,1.11-7.09.23-7.45-.19-7.9-7.26-1.87-29.58-2.03-59.18-1.67-88.81.25-20.43.48-40.86,1.52-61.28.41-8,1.8-9.95,9.84-10.65,6.47-.56,13.03-.11,19.55-.11Zm46.02,78.53c3.57-11.67,1.88-22.19-1.49-32.7-2.47-7.7-7.51-12.23-15.1-14.76-9.18-3.06-18.52-3.26-27.99-3.07-3.1.06-4.15,1.73-4.11,4.47.1,7.38.34,14.76.32,22.14,0,4.04,1.96,5.79,5.77,6.32,4.95.69,9.96.77,14.83,2.25,10.22,3.11,20.13,6.68,27.76,15.36Zm-37.1,22.87c2.92-.29,5.89-.31,8.74-.93,3.66-.79,4.21-2.65,2.07-5.66-2.94-4.12-11.74-7.06-16.68-5.62-2.24.65-3.47,1.99-3.55,4.38-.19,5.48,1.07,8.69,9.43,7.82Z"/>
    <path class="cls-1" d="m109.85,499.55c-4.45,7.84-8.23,14.79-12.28,21.59-7.68,12.89-24.83,13.92-33.85,2.06-7.51-9.87-14.92-19.83-23.69-31.49-.44,6.6-.94,11.37-1.05,16.16-.55,24.87-.98,49.75-1.5,74.63-.24,11.44-2.77,13.98-14.18,14.48-.89.04-1.78.06-2.67.1-13.36.61-14.67.36-14.29-14.24.6-23.38,3.14-46.68,2.7-70.09-.17-8.9.89-17.76,2.06-26.57,1.18-8.84,1.47-17.7,1.34-26.62-.11-8.02,1.59-9.58,9.74-10.67,2.64-.35,5.27-.79,7.87-1.34,10.86-2.31,12.81-1.59,19.14,7.91,5.92,8.87,11.61,17.9,17.58,26.73,2.15,3.18,4.86,5.96,7.25,8.98,2.63,3.33,4.55,2.7,6.72-.66,8.21-12.69,16.93-25.07,24.78-37.97,4.05-6.65,9.01-9.72,16.7-9,4.42.41,8.91-.03,13.33.39,5.34.51,7.42,2.61,7.34,8.06-.2,13.88,1.67,27.83-1.41,41.66-.89,3.99-.78,8.28-.67,12.41.67,25.21-1.57,50.34-2.11,75.52-.21,9.8-1.39,10.82-10.79,10.88-4.14.03-8.29.28-12.42.07-5.97-.3-7.4-1.45-7.83-7.35-.41-5.6-.38-11.28.07-16.87,1.64-20.68.68-41.49,3.31-62.12.22-1.71.64-3.54-1.2-6.63Z"/>
    <path class="cls-1" d="m632.74,517.93c.23-22.83,1.74-45.6,3.06-68.38.1-1.76.47-3.52.81-5.26,2.33-12.06,5.66-15.01,17.59-15.61,42.31-2.16,80.14,31.37,82.92,73.69,1.14,17.3-.6,34.24-6.73,50.67-4.95,13.26-12.62,24.18-25.22,30.97-15.47,8.33-31.76,14.52-49.2,17.41-4.18.69-8.31.5-12.34-.64-8.11-2.29-12.41-7.77-12.28-16.21.35-22.22.91-44.43,1.38-66.65Zm29.65-2.59c.08,15.72-.82,31.67-1.6,47.63-.29,5.88.36,6.12,5.94,5.04,9.2-1.78,17.18-6.19,24.88-11.26,6.24-4.1,10.21-9.92,12.23-16.92,5.12-17.73,6.46-35.06-2.08-52.67-5.88-12.14-14.07-21.01-25.91-26.78-8.76-4.27-11.81-2.37-11.86,7.67-.07,15.69-.8,31.35-1.61,47.28Z"/>
    <path class="cls-1" d="m589.58,577.9c-2.91-.14-3.77,1.66-4.71,3.02-12.41,17.81-30.25,21.56-50.26,19.2-6.13-.72-12.33-1.62-17.96-4.72-10.5-5.78-15.98-14.42-16.49-26.5-.88-20.83,10.06-34.56,26.51-45.06,14.12-9,30.2-11.73,46.37-14.1,1.76-.26,3.56-.2,5.32-.47,2.05-.31,3.27-1.44,2.54-3.67-2.4-7.34-4.64-14.56-12.21-18.84-9.4-5.31-18.97-7.88-29.78-5.7-9.02,1.82-11.42.09-14.02-8.83-.25-.85-.28-1.76-.51-2.62-3.28-12.47-2.3-14.15,10.23-15.07,14.52-1.07,28.93-1.45,42.88,4.42,18.78,7.91,29.81,21.43,33.11,41.66,3.11,19.03,3.98,38.3,6.95,57.34,1.64,10.54,2.88,21.15,4.12,31.75.82,7.02-1.68,10-8.54,10.15-4.43.1-8.87-.38-13.3-.53-4.16-.14-6.62-2.17-7.38-6.27-.95-5.12-1.92-10.24-2.85-15.18Zm-13.32-39.85c-15.02.3-27.52,4.6-38.03,14-3.04,2.72-5.55,6.16-7.07,10.07-2.02,5.2-.83,7.79,4.47,9.34,7.17,2.1,13.97,1.98,19.67-3.91,1.83-1.89,4.02-3.48,6.2-4.98,8.27-5.67,12.59-13.7,14.75-24.52Z"/>
    <path class="cls-1" d="m162.29,515.45c0-17.77,0-35.55,0-53.32,0-2.96,0-5.93.1-8.89.34-9.57,2.88-12.8,12.28-14.38,11.7-1.96,23.5-3.16,35.39-3.2,7.71-.03,15.43-.28,23.13-.04,6.27.2,6.9,1.09,7.87,7.25.64,4.09,1.59,8.14,2.02,12.25.61,5.82-.54,7.75-6.39,8.47-7.03.87-14.18.81-21.28,1.15-5.63.26-11.29.19-16.87.86-5.63.68-6.41,1.73-6.09,7.59.66,12.13,1.73,24.23,2.35,36.36.23,4.56,2.67,5.44,6.43,5.1,7.68-.7,15.34-1.57,23.03-2.06,7.75-.5,8.61.32,9.72,7.96.64,4.4,1.35,8.81,1.58,13.25.36,6.99-.86,8.41-7.76,9.01-8.57.74-17.18,1.03-25.75,1.81-7.09.64-7.23.99-7.21,8.18.01,4.45,0,8.9.14,13.34.23,7.22,1.32,8.3,8.46,7.76,10.9-.83,21.82-1.04,32.61-3.66,10.53-2.55,16.2,2.28,15.8,13.07-.69,18.57,3.61,15.96-16.44,18.21-14.39,1.62-29,1.09-43.35,3.78-4.67.87-9.43-.6-14.07-1.66-6.46-1.48-10.23-5.52-11.86-11.87-2.08-8.12-2.3-16.46-2.69-24.72-.83-17.17-1.15-34.38-1.16-51.58Z"/>
    <path class="cls-1" d="m811.86,516.4c0-22.23-.06-44.46.03-66.68.04-9.32.79-9.98,10.06-10.51,2.07-.12,4.15-.05,6.22-.05,10.17-.01,11.57,1.18,12.24,11.65.68,10.64,1.22,21.3,1.56,31.96.56,17.47,1.07,34.94,1.28,52.42.13,10.65-.54,21.3-.5,31.95.03,7.46.3,7.46,7.48,6.95,8.27-.58,16.54-1.26,24.82-1.74,5.84-.34,6.18,0,6.36,5.56.16,5.03.28,10.07.18,15.1-.12,5.59-1.81,7.53-7.4,7.85-15.38.89-30.77,1.78-46.16,2.2-10.42.28-14.64-3.67-15.55-13.87-1.5-16.83-.17-33.73-.72-50.59-.24-7.39-.04-14.8-.04-22.2.05,0,.1,0,.14,0Z"/>
    <path class="cls-1" d="m888.51,527.1c0-22.23-.06-44.46.03-66.68.04-9.32.79-9.98,10.06-10.51,2.07-.12,4.15-.05,6.22-.05,10.17-.01,11.57,1.18,12.24,11.65.68,10.64,1.22,21.3,1.56,31.96.56,17.47,1.07,34.94,1.28,52.42.13,10.65-.54,21.3-.5,31.95.03,7.46.3,7.46,7.48,6.95,8.27-.58,16.54-1.26,24.82-1.74,5.84-.34,6.18,0,6.36,5.56.16,5.03.28,10.07.18,15.1-.12,5.59-1.81,7.53-7.4,7.85-15.38.89-30.77,1.78-46.16,2.2-10.42.28-14.64-3.67-15.55-13.87-1.5-16.83-.17-33.73-.72-50.59-.24-7.39-.04-14.8-.04-22.2.05,0,.1,0,.14,0Z"/>
    <path class="cls-1" d="m794.25,516.41c-1.27,23.05-2.5,46.09-3.83,69.14-.37,6.5-1.54,7.54-8.32,7.46-5.62-.06-11.24-.27-16.84-.7-4.9-.37-6.21-2-5.22-7.08,2.22-11.43,1.97-22.95,1.63-34.45-.26-8.97,1.28-17.7,2.42-26.5.3-2.35.68-4.63.44-7.04-.92-9.47-.84-9.64-10.63-11.07-3.67-.53-5.26-2.2-5.32-5.7,0-.3.01-.59,0-.89-1.03-18.53-.35-19.32,18.21-20.35,4.73-.26,9.48-.53,14.21-.47,7.42.1,11.94,3.61,12.5,11.06.67,8.82.16,17.73.16,26.6.2,0,.4,0,.6,0Z"/>
    <path class="cls-1" d="m852.86,517.51c1.06.79,1.21,1.82.8,3.01-1.09-.78-1.44-1.76-.8-3.01Z"/>
    <path class="cls-1" d="m491.32,580.58c.1,5.34.22,3.94.31,8.9.13,7.46-4.57,14.32-11.71,16.5-4.21,1.28-8.52,1.52-12.9.8-17.44-2.88-33.73-9.07-49.2-17.41-12.6-6.79-20.27-17.71-25.23-30.97-6.13-16.43-7.87-33.37-6.73-50.67,2.78-42.31,40.62-75.85,82.92-73.69,12.17.62,15.39,3.67,17.73,16.33.35,1.9.7,5.04.81,6.96.12,2.03.24,4.06.36,6.09.44,7.47-5.5,13.77-12.98,13.77h-11.92c-2.08,0-3.78-1.67-3.79-3.75,0-.01,0-.03,0-.04-.04-10.04-3.1-11.94-11.86-7.67-11.84,5.77-20.03,14.64-25.91,26.78-8.53,17.61-7.19,34.94-2.08,52.67,2.02,6.99,5.99,12.82,12.23,16.92,7.47,4.91,15.21,9.18,24.05,11.07,0,0-.07.26,0,.28,12.48,3.57,33.87-1.78,35.88,7.13Z"/>
    <g>
      <path class="cls-1" d="m217.19,948.21c-.32.32-.26.26-.52.39-.13.06-.51.32-.96.26-.32-.13-.26-.64-.58-.84-.39-.06-.77.13-1.03.19-.32.06-.58.13-.84.19-.19.06-.26.13-.45.19-.06.06-.19-.06-.32,0-.19.26-.38.26-.58.32-.39.06-.71.19-1.16.06-.26.19-.84.26-1.35.39-.97.19-3.54.71-3.93-.32-.13-.26,0-.32,0-.39-.06-.32-.26-.64-.13-.96,0-.52.58-.39.64-.77-.06-.64-.38-1.74,0-2.19-.13-.26-.26-.52-.32-.84.19-.13.13-.39.19-.52.32-.84.38-1.48.32-2.71-.06-.39-.19-.77-.19-1.16-.06-.52,0-.97,0-1.48,0-1.16-.19-2.51-.19-3.8,0-.51-.06-1.09,0-1.61.06-.64.32-1.61.38-2.58,0-.19-.06-.45-.06-.71s.13-.52.06-.71c0-.71-.13-1.42-.13-2.12s.06-1.42.06-2.25c0-.26-.13-.64-.13-.84.06-.26.26-.52.26-.84s.06-.52-.06-.84c-.26-.06-.45.26-.64.52s-.26.71-.45.9c-.19.32-.58.58-.84.84-.13.13-.19.39-.32.52-.13.13-.38.13-.51.32-.13.64-.64,1.09-.97,1.61-.19.26-.32.58-.45.84-.32.26-.38.45-.58.71l-.19.39c-.19.32-.58.64-.84,1.03-.06.13-.13.26-.26.45-.19.13-.13.32-.19.39-.19.26-.45.45-.45.84-.32.06-.45.39-.52.77-.32.06-.19.58-.64.52-.26.26,0,.52-.32.64.13.39-.45.06-.51.26v.77c-.26.13-.39.32-.64.39,0,.58-.32.84-.64,1.16-.13.06-.13.19-.32.19.06.26-.26.32-.32.51-.06.26-.26.32-.32.39s-.06.19-.13.32c-.13.13-.26.19-.39.26-.13.13-.13.32-.26.45-.19.19-.45.38-.64.58-.26.32-.38.64-.71.97-.32.26-.64.9-.97,1.29-.13.13-.26.19-.32.32-.26.32-.51.77-.84,1.1-.39.45-.77.77-1.1,1.35l-.19.39c-.19.26-.32.84-.58,1.16-.13.19-.39.32-.52.52-.64.84-1.03,1.87-1.93,2.51,0,.9-.9,1.61-1.61,1.03-.19-.19-.84-.84-.97-1.16-.19-.39-.19-.77-.39-1.16-.13-.19-.26-.19-.45-.39,0-.06-.19-.26-.19-.26-.06-.19-.06-.26-.19-.52,0-.06-.06-.26-.06-.32-.13-.13-.32-.13-.45-.32-.06-.13-.13-.32-.19-.52-.13-.38-.32-.77-.58-1.22-.13-.26-.26-.58-.39-.9-.26-.13-.19-.32-.19-.38-.06-.13-.26-.19-.32-.32-.06-.26-.06-.52-.06-.71-.13-.32-.39-.58-.52-.84-.13-.32-.06-.64-.19-.97-.06-.19-.32-.39-.39-.64-.06-.13-.06-.38-.13-.58,0-.19-.13-.39-.19-.45,0-.19.06-.45,0-.64-.06-.39-.26-.9-.64-1.16-.06-.52-.26-.77-.39-1.35-.26-.64-.45-1.42-.71-2.19-.58-.51-.71-1.48-1.22-2.12,0-.19-.13-.45-.06-.84-.06-.39-.39-.58-.58-.9-.13-.19-.13-.51-.19-.77-.06-.13-.26-.32-.32-.52-.19-.39-.13-.9-.58-1.16.26-.38,0-.96-.32-1.16-.45.39.06,1.03.06,1.61,0,.32-.13.52-.19.9s-.06.96-.13,1.48c-.06.45-.13.9-.13,1.35,0,.13.06.32.06.52s-.06,1.03-.13,1.42c-.06.32-.32.64-.32.97-.06.32,0,.77.06,1.1.06.26.19.51.19.77,0,.45-.19.9-.13,1.54,0,.45.19.9-.26,1.35.06.26.39.32.32.71,0,.39-.19.58-.32.71.13.32.13.77-.13.97.19.38.19.84.13,1.54,0,.13-.06.19-.06.32,0,.26.13,1.03-.26,1.35.19.97.13,2.38,0,3.8,0,.19-.13.52-.06.58.06.45.45.71.45,1.09-.19.58-.45,1.16-.96,1.48-.9,0-1.74-.39-2.9-.39-1.54-.06-3.15,0-4.77-.19-.64-.13-.84-.13-1.22-.45-.06-.06-.06-.19-.13-.26-.19-.06-.19,0-.39-.19-.13-.13-.38-.19-.51-.45.06-.71.26-1.35.58-1.8,0-.77.06-1.54.26-2.38.06-.26.19-.45.19-.64.06-.26,0-.64.06-.97,0-.19.13-.45.19-.71,0-.13.13-.39.13-.39,0-.13-.13-.19-.13-.32.06-.26.19-.45.26-.71.13-1.29.06-2.51.39-3.73.06-.26.13-.64.32-.84-.13-.84.06-1.93.39-2.71.26-.58,0-1.87.13-2.77.06-.32.26-.58.32-.84.13-.45,0-1.03.39-1.35-.32-.45.13-.71.13-1.22,0-.13-.13-.19-.13-.32.06-.13.19-.19.26-.32,0-.13-.06-.39,0-.51.06-.26.45-.64.45-1.03,0-.06-.13-.13-.13-.32.06-.39.19-.84.26-1.35.06-.77.26-1.87.38-2.96,0-.19.06-.19.06-.32.06-.19-.06-.19-.06-.32,0-.26.26-.52.32-.9,0-.19-.13-.19-.13-.26s.19-.45.26-.71c.32-1.8.58-3.35.97-5.09,0-.19-.06-.39,0-.58,0-.13.19-.19.19-.32.06-.26,0-.58,0-.84.06-.26.26-.52.26-.71.06-.64-.06-1.16.06-1.87,0-.26.06-.58.06-.77,0,0,.13-.26.13-.38.32-1.1.32-1.74.39-2.77,0-.52-.06-.9,0-1.48-.13-.26.19-.19.13-.52.39-.32,1.16-.06,1.67.06.13.45.52.64.52,1.22.19.19.32.39.52.64,0,.45.13.77.26,1.16.19.52.58,1.29.77,1.87.13.32.13.58.19.84.13.39.45.71.58,1.03.13.26.06.64.13.84,0,.13.19.19.19.32s-.06.32,0,.45c.13.45.32.84.45,1.22.19.45.32.97.52,1.35.13.38.39.77.58,1.16.39.84.77,1.67,1.09,2.51.26.64.39,1.29.71,2,.06.26.32.39.19.64.9,1.29,1.09,3.16,2,4.44.19,1.29.58,2.51,1.03,3.61.19.26,0,.26,0,.51.13.58.71.71.58,1.48.19.32.58.45.71.77.13,1.48,1.03,2.19,1.16,3.67.19.19.39.52.64.71,0,.52.19.97.39,1.35.13.39.32.84.77.97.32-.32.39-.84.58-1.22.06-.26.19-.39.32-.64.19-.45.32-.77.52-1.22.13-.19.13-.45.26-.58.06-.19.26-.32.38-.52.13-.26.13-.45.26-.64.06-.13.32-.26.39-.38.06-.13.06-.26.13-.32.13-.19.32-.45.52-.71.06-.26.19-.19.26-.19.06-.13.19-.32.32-.52.13-.19.32-.45.51-.71.13-.19.13-.52.19-.64s.26,0,.32-.13c.06,0,.06-.19.13-.26.32-.52.58-1.03.97-1.54.32-.45.77-.9,1.16-1.35.26-.26.52-.64.77-.9.51-.32.77-.9,1.16-1.35.32-.32.58-.52.84-.97.45-.71,1.16-1.35,1.61-2.19.26-.32.52-.71.77-1.09.58-.45.77-1.42,1.61-1.67-.19-.19.06-.39.19-.58.32-.52.71-1.29,1.09-1.87,0-.26.13-.32.39-.32.06-.13.06-.32.06-.52.71-.32.9-1.35,1.67-1.67.45-.9,1.29-1.35,1.8-2.25.06-.06.19-.19.26-.19.06-.26,0-.32.19-.52.06-.13.26-.45.45-.64.38-.58.64-1.16,1.16-1.61.06-.39-.13-.45-.06-.77.19-.19.45-.52.71-.77.13-.13.26-.13.32-.19.58-.58.77-.9,1.48-1.16.26-.06.84-.06,1.16.26.32.32.13.64.26,1.35.06.39.26.77.39,1.35.19.84.39,1.74.58,2.64.06.45.06.97.19,1.42.06.64.39,1.29.45,1.87.06.71-.06,1.35.26,1.8.06.32-.13.32-.19.51-.06.19.13.19.19.32s.06.19.06.39c.19.64.19,1.67.26,2.64.06.19.19.52.19.71.06.19.13.26.13.45,0,0-.13.13-.13.26.06.32.32.58.39.84s0,.52.13.77c0,.19.13.39.19.52.06.39.06.84.13,1.22.06.26.19.45.19.64.06.26,0,.52,0,.71.13.71.51,1.48.19,2.45,0,.32.32.39.39.71-.13.13.06.77.06.71-.32.26.19,1.22.19,1.67,0,.13-.13.26-.13.45.13,1.42.71,2.77.45,4.06.39.45.26,1.03.45,1.74.06.19.19.39.19.52.19,1.03,0,2.12.26,3.15.06.19.26.39.32.64.19.64,0,1.54.32,2.25.06.39-.13.45-.19.64.39.38.45,1.09.58,1.8.06.26.26.39.39.58.32.64.32,1.35-.26,2.12Z"/>
      <path class="cls-1" d="m236.06,952.59c-.26,0-.58-.19-.9-.19-.26-.06-.64.06-.97.06-.26,0-.51-.13-.77-.13-.64,0-1.35.06-2.12.06-.45,0-.84.13-1.22-.13-.71.19-1.35.38-2.19.38-.45-.26-.45-.9-.84-1.16-.06-.77,0-1.67-.13-2.64,0-.26-.06-.58-.06-.84-.06-.32-.19-.64-.19-.9s.13-.58.13-.84c0-.45-.19-.9-.19-1.35,0-.52.13-.9.13-1.35,0-.97-.13-1.87-.13-2.83,0-.45.13-.9.13-1.35,0-.26-.13-.45-.19-.71,0-.13.06-.13,0-.32-.06-.13-.13-.19-.13-.32,0-.26.19-.38.26-.71,0-.19-.13-.71-.06-1.16,0-.84.06-2.45.06-3.54,0-.58.32-1.09-.19-1.54.32-1.67.45-2.32.19-3.93.32-.26.19-.64.26-.97.06-.64.06-1.16,0-1.93,0-.77.13-1.35.06-2.06,0-.19.06-.32,0-.45,0-.06-.13-.13-.06-.32.06-.32-.06-.45-.13-.58-.06-1.03.19-2.06.19-3.03,0-.39-.13-.71-.06-1.03,0-.58.06-.97,0-1.61,0-.13-.06-.19-.06-.26.06-.71.19-2.12-.39-2.64.32-.45,0-1.1.06-1.54,0-.26.06-1.03.13-1.55,0-.26.13-.51.13-.71,0-.39-.45-.97-.06-1.61-.26-.52-.58-.77-.52-1.22.06-.77.77-1.03,1.61-1.22.13-.06.26.06.39,0,.13,0,.19-.19.32-.19.32,0,.58.13.84.19.51.06,1.22-.06,1.42.26.71-.06,1.29-.26,1.93-.26.26,0,.39.19.71.19.26.06.45-.19.71-.06.32.32.84.45,1.22.64.26.45.26,1.03.32,1.61,0,.51.06,1.09.06,1.61-.06.64-.26,1.29-.26,1.87-.06.77.32,1.42-.06,2,.19.45.38.58.06,1.03.38.64.19,1.22.19,2,0,.64,0,1.55-.06,2.38v.64c0,.13-.13.32-.13.52s.13.39.19.58c.06.45-.06,1.22.26,1.8,0,.26-.13.38-.19.58.06.26.19.45.19.64,0,.45-.13.71-.06,1.16.13.26.06.71.13,1.03,0,.19-.13.45-.13.64,0,.32.19.45.19.71,0,.39-.26.97-.26,1.35,0,.06.13.19.13.32-.06.26-.19.45-.26.71.13.26.19.71.32,1.03.13.38-.06.58-.06,1.03,0,.39.26.84.32,1.16,0,.45-.13.84-.13,1.29-.06,1.03.32,2.12.19,3.09,0,.39-.19.77-.19,1.16,0,.32.19.64.26,1.03.19.77.06,2,.06,3.22-.06,1.48-.26,3.22,0,4.57,0,.19.19.45.19.64.13,1.1-.06,2.12,0,3.03.06.26.26.52.32.84.06.13.06.32.06.52.06.06.13.19.13.39-.13.71-.71.71-1.1,1.22Zm3.54-63.1c-.26.45-.19.58-.58.84-.58.38-.77.9-1.22,1.22-.19.13-.52.13-.64.26-.19.19-.39.39-.58.52-.13.19-.32.26-.52.45-.58.45-1.09.84-1.54,1.48-.39.58-.71,1.16-1.42,1.42,0,.26-.19.39-.13.77-.52.32-.77,1.09-1.35,1.48-.32.26-.71.13-1.35-.13-.39-.13-.9-.26-1.03-.64-.26.06-.45.19-.64,0-.52-.9,0-1.74.71-2.19.38-.9.96-1.61,1.67-2.19.19-.84.96-1.35,1.42-2.06.32-.58.45-1.16,1.1-1.42-.32-.84.71-1.09.71-1.87.58-.26.84-.52,1.42-.32.32.19.38.64.71.9,1.1,0,2.38-.64,3.41-.06.26.45.26.96.06,1.35-.06.06-.19.13-.19.19Z"/>
      <path class="cls-1" d="m292.28,934.69c-.06.26-.06.52-.13.71-.06.26-.38.51-.45.77-.06.06-.06.39-.13.39-.13.58.06,1.29-.26,2.06,0,.06-.13.32-.19.39-.13.26-.32.26-.45.64,0,.13,0,.26-.06.38-.06.06-.19.06-.26.13-.06.19-.32.64-.64.84,0,.19-.13.39-.06.71-.71.45-.71,1.22-1.22,1.93-.19.19-.19.26-.19.32-.32.26-.38.45-.51.58-.26.19-.52.26-.77.52-.13.13-.13.32-.19.45-.45.39-.96.71-1.16,1.29-.26.06-.52.19-.64.32-.13.06-.13.19-.26.32-.06.06-.19,0-.26.06-.13.06-.13.26-.26.32-.26,0-.19.19-.19.19-.32.19-.64.26-.84.38-.45.45-1.48.77-2,1.29-.26,0-.58.32-.64.13-.26.26-.39.51-.71.71-.38.26-1.03.19-1.16.71-.26,0-.45-.06-.52-.13-.52.45-1.03.84-1.93.9-.45.38-1.74.71-2.71.77-.38,0-.9-.06-1.22-.06-.52.06-.96.39-1.42.39-.32.06-.64-.13-1.03-.32-.13.13-.19,0-.39,0-.51.06-1.03.26-1.54.26-.52.06-1.03-.06-1.48-.13-.19.13-1.03,0-1.22-.19-.58.39-1.16-.13-1.74-.26-.84-.26-1.74,0-2.32-.58-.96,0-1.67-.26-2.12-.77-.26.06-.45-.06-.64-.13-.45-.13-.64-.26-1.03-.52-.06-.06-.13-.19-.19-.26-.13-.06-.38-.13-.64-.32l-.19-.19c-.19-.13-.39-.19-.52-.32-.26-.26-.45-.64-.71-.84-.45,0-.71-.26-1.09-.64-.39-.32-1.1-.77-1.22-1.29-.52-.13-1.1-.32-1.35-.64-.06-.32-.26-.26-.39-.45-.26-.26-.64-.64-.9-.97-.13-.06-.13-.32-.13-.58-.26-.32-.52-.52-.84-.77-.06-.19-.19-.39-.26-.64-.38-.32-.77-.77-1.03-1.22-.64-.45-.58-1.54-1.29-1.93.06-.71-.45-1.1-.71-1.67-.19-.45-.19-.97-.26-1.48-.06-.26-.32-.58-.32-.9,0-.13.13-.19.13-.32-.06-.26-.26-.58-.32-.84-.06-.32,0-.71-.06-1.03l-.19-.97c0-.26.13-.71-.19-.9.06-.26.13-.58.13-.84s-.13-.39-.19-.64c.13-.26,0-.32,0-.32.06-.58.19-.97.06-1.68-.19-.32.06-.64,0-1.22,0-.19-.13-.39-.19-.64,0-.26,0-.71.06-1.03,0-.32.19-.58.19-.9.06-.19-.06-.39-.06-.64,0-.19.13-.39.13-.52-.06-.26-.19-.52-.19-.71,0-.45.13-.9.19-1.35.13-.45.13-1.03.26-1.35.06-.19.26-.32.32-.51.26-.52.52-1.16.77-1.74.32-.84.39-1.8,1.09-2.25.06-.64.39-1.03.52-1.55,0-.32.32-.32.45-.45-.06-.39.13-.52.26-.84.06-.19.32-.39.38-.58.06-.13.06-.45.13-.64s.32-.19.19-.52c.45-.19.71-.64.9-1.1.45-.19.77-.51.96-1.03.52-.06.52-.64,1.16-.58.13-.26.32-.39.58-.52.13-.26.45-.26.58-.51.64-.06,1.03-.52,1.55-.77.51-.26,1.09-.32,1.61-.71.77.06,1.16-.19,1.54-.51.58.13,1.09-.06,1.54-.26.64-.19,1.8-.45,2.64-.64.71-.19,1.29-.26,2-.52.13,0,.32,0,.52-.06.13-.06.13-.19.32-.19.19-.06.45,0,.71,0,.19,0,.39.19.64.19.06.06.13-.06.26-.06s.13.06.26.13c.13,0,.39.06.58.06.19.06.32.19.52.26.9.19,1.61.06,2.06.58.58-.26,1.48-.06,2.19-.06.39,0,.45.32.71.39.45,0,.9.06,1.29.19.13,0,.26.13.39.19.19.06.45-.06.64,0,.26.06.58.26.77.32.77.26,1.42.26,1.8.9.32,0,.26-.32.71-.19.71.32,1.67.32,2.45.64.13.06.13.19.26.26.13,0,.19.06.26.06.26.13.38.26.51.32.39.19.9.26.97.64.32,0,.64.19.9.32.39.26.71.64,1.16.97.13.13.19.32.39.45.13.13.38.13.51.19.26.26.39.58.58.84.71.06.9.58,1.48.71.19.32.39.58.71.9,0,.06,0,.19.06.26.13.06.32.13.39.19.13.13.19.39.32.64.13.26.19.58.39.9.26.45.84,1.03.71,1.93.39.26.52.84.77,1.35.06.06.06.26.13.32.26.26.19.52.26.71.13.39.32,1.09.38,1.67.06.32-.06.58,0,.84.13.84.52,1.61.9,2.19-.06,1.03,0,1.8-.06,2.83-.06,1.1.26,2.32.19,3.73,0,1.61-.45,3.48-.9,4.96Zm-6.12-10.62c0-.39.06-.84,0-1.16s-.26-.58-.38-.9c-.06-.39.26-.52,0-.77-.26-.52-.45-1.22-.64-1.87-.06-.19-.26-.26-.39-.38-.19-.19-.26-.32-.45-.58-.06-.13-.26-.26-.39-.39-.13-.26-.13-.45-.32-.64-.52-.58-1.35-1.03-2.12-1.61-.39-.26-.64-.58-1.03-.84-.13-.13-.45-.19-.58-.32-.26-.19-.38-.45-.51-.58-.71-.32-1.61-.19-2.19-.84-1.1.13-2.12-.58-3.54-.52-.26-.06-.38-.26-.71-.32-.58.19-.97,0-1.42-.13-.32-.06-.58-.19-.84-.26-.58-.13-1.16-.39-1.67-.45-.13,0-.26.13-.32.13-.45.06-.9-.26-1.35-.26-.39,0-.9.19-1.22.19,0,0-.13-.19-.19-.19-.13-.06-.32,0-.45,0-.64-.13-1.74-.13-2.25-.26-.39-.19-.84-.19-1.16-.45-.26.32-.39.39-.58.51-.58.19-.84.64-1.29.9-.39.19-.9.26-1.29.45-.19.13-.32.39-.52.52-.19.19-.45.26-.64.38-.39.32-.64.84-1.16.97-.19.39-.58.84-.84,1.22-.32.39-.58.9-1.09,1.1,0,.64-.39.96-.45,1.54.06.19-.19.13-.26.19-.26.52-.32.77-.45,1.16-.06.19-.13.32-.26.52-.13.32-.38.58-.51.9s-.26.64-.45.9c-.32.64-.52.9-.64,1.67-.19.84-.45,2-.39,2.51.06.13-.13.26-.13.26,0,.32.06.58,0,.84,0,.26-.19.45-.19.64-.26,1.16,0,2.25.13,3.41.06.9-.06,1.8.06,2.38,0,.26.26.58.39.84.06.39.06.71.19,1.1,0,.06.13.26.19.38.13.52.26,1.22.45,1.48.26.32.58.51.84.84s.39.71.58,1.03c.13.19.32.26.39.45.13.19.19.38.32.51.26.32.58.52.84.84s.45.71.71,1.09c1.22.64,2.19,1.48,3.15,2.45,1.1.13,2.25.71,3.09,1.03.32.06.77.26,1.16.32.32,0,.64-.13,1.03-.13.77.06,1.29.38,1.93.51.71.06,1.42-.06,2.06.26.39-.26.64-.19,1.09-.13.77-.58,2-.26,3.03-.51.13-.06.19-.19.26-.19.19-.13.26-.06.45-.13.58-.26.96-.52,1.48-.71.26-.06.58-.19.84-.26.13-.06.13-.19.32-.32.13-.13.32-.13.52-.19.26-.13.52-.45.9-.38.26-.52.71-.71,1.29-.84.13-.32.39-.45.52-.58.26-.19.26-.06.32-.32.06-.13.38-.32.45-.38.32-.45.64-.9.97-1.22.06-.39.39-.45.52-.64.06-.45.26-.77.45-1.1.13-.39.45-.64.45-1.16.45-.13.45-.64.64-1.03,0-.06.13-.06.19-.19s.06-.26.13-.32c.13-.32.32-.58.45-.84.13-.32.26-.52.38-.77.13-.19.13-.45.26-.64.06-.19.26-.32.32-.52.06-.32,0-.77.13-1.16.19-.32.45-.58.52-1.09.06-.32-.13-.77-.06-1.16.06-.32.32-.71.45-1.09.13-.52.38-1.22.32-1.48,0-.13.13-.26.13-.32v-.71c.06-.39.26-.58.26-.9,0-.39-.19-.84-.19-1.29Z"/>
      <path class="cls-1" d="m309.22,951.17c0,.19.32.06.32.26-.06.32-.19.84-.26,1.09,0,.13.13.19.13.32-.06.32-.26.52-.32.71s0,.45,0,.64c-.06.06-.19.06-.26.13-.06.13,0,.38-.13.58-.19.06-.39.19-.58.19-.13.39.13.39.06.77-.38.45-.58,1.16-1.09,1.48,0,.64-.26,1.1-.71,1.35-.06.32-.32.64-.45.9-.13.32-.26.71-.45.96-.06.13-.32.13-.39.32-.13.13-.13.39-.26.52-.06,0-.26,0-.32.06-.26.19-.58.71-1.03.9-.19.06-.45.06-.64.13s-.71.32-.97.26c-.32,0-.38.32-.71.32-.45-.26-.97-.39-1.35-.64,0-.52.19-.64.13-1.16.77-.52.58-2.06,1.35-2.58-.26-.9.51-1.48.64-2.19.06-.19-.06-.32-.06-.38,0-.19.06-.71.13-1.16,0-.39.26-.9.19-1.54,0-.39-.39-.71-.26-1.16-.32,0-.64,0-.96.06-.32.13-.52.39-.84.32-.58-.06-.64-.58-1.22-.84.45-.84-.39-1.93.26-2.38-.52-.58-.45-1.67.26-2,.06-.77.71-1.42,1.22-1.87.39-.39,1.74-.19,2.19-.77.45.13.84-.19,1.16-.19.52.06.71.52,1.29.58.32.39.52.84.9,1.03.26.32.19.77.45,1.1.39-.06.77-.19,1.1,0,.32,0,.45.39.71.52.39.26.77.58,1.03.96-.19.52.19,1.35.06,2,0,.13-.06.45-.32.39Z"/>
      <path class="cls-1" d="m368.01,913.89c-.58,0-1.16.06-2-.06-.19,0-.39-.19-.52-.19-.26,0-.58.06-.84.06-.32,0-.52-.06-.84-.13h-.71c-1.09-.13-2.19.13-3.35.26v.58c0,.19.13.32.13.32,0,.19-.13.32-.13.32,0,.26.06.45.06.71s-.13.52-.06.77c0,.19.13.45.19.71,0,.51-.13,1.16-.06,1.87,0,.26.13.51.19.84.06.26,0,.58.06.84.06.39.26.64.32,1.03,0,.39.06,1.1.06,1.48-.06.45-.26.9-.26,1.35,0,.39.32.71.39,1.16.13.58,0,1.29.06,1.93,0,.26.19.52.19.77.06.32-.06.64,0,.9.06.38.19.71.39,1.16.06.19.13.58.06,1.03,0,.19-.13.38-.13.51,0,.26.19.52.19.77.13,1.16-.06,2.45.26,3.61-.13.19-.06.58-.26.71.13.32.26.64.32.96,0,.32-.13.58-.13.9s.13.58.19.84c0,.32-.13.58-.13.96,0,.26.06.58.06.84,0,.58.06,1.16,0,1.67-.06.19-.26.45-.26.71,0,.39.06.9.06,1.35,0,.13-.06.26-.06.32.06.19,0,.19-.06.26,0,.13.13.26.13.45-.06.52-.26,1.1-.26,1.55,0,.19.13.26.19.51.13.45.19.71.32,1.16s.06.45.06.96c0,.26.26.64-.13.9.39.32.84.71.58,1.54-.13.58-.84.58-1.16.97-.26-.06-.45-.13-.51-.32-.9,0-1.87-.06-2.71-.39-.39.06-.64.19-1.03.26-.32,0-.64.06-.84-.13-.26.32-.64.26-1.35.32-.06,0-.13.13-.32.06-.39-.06-.39.06-.52.13-.26.06-.9,0-1.22.06-.45.06-.96.19-1.35-.06-.64-.13-.39-1.1-.71-1.55.06-.51.58-.71.32-1.22.26-.32.45-.64.64-.96.13-.39.13-.97.26-1.29s0-.52,0-.96c0-.58.19-1.1-.13-1.68.26-.51.19-1.09.19-1.54.06-.06.13-.13.13-.32,0-.26-.19-.58-.19-.84,0-.39.26-.84.26-1.22,0-.26-.19-.38-.19-.64-.06-.26.13-.64.13-.9,0-.32-.06-.71-.19-.96.19-.06,0-.45.19-.52-.19-.45-.13-1.03-.13-1.67-.06-.77,0-1.8-.19-2.58,0-.19-.13-.32-.19-.52-.06-1.22.58-2.58-.13-3.54.32-1.16-.13-2.9.13-3.93.06-.52-.39-.39-.32-.77,0-.58.06-1.42-.13-2-.39-.77-.13-2.64-.06-3.73-.13-.32-.32-.52-.38-.9-.13-.71.19-1.35.26-2.06.06-.58,0-1.22.06-1.61.06-.71-.19-1.67-.19-2.45-1.03.06-2.06.26-3.09.32-.19,0-.26-.13-.45-.13-.32.06-1.29.19-1.87.26-.19.06-.45.19-.64.19-.58.13-1.22,0-1.87.06-1.03.19-2.12.64-3.22.39-.45-.71-.19-1.61-.26-2.12-.06-.32-.06-.58-.06-1.1,0-.19.13-.39.13-.51s-.19-.26-.26-.32c-.06-.45.06-.97.06-1.35,0-.45-.45-.32-.39-.77.06-1.16-.64-2.9.26-3.8.45-.13.84-.26,1.48-.06.19,0,.45.06.64.06.39.13.84.32,1.22.38.26,0,.58-.13.9-.13.39,0,.77.13,1.16.13.19.06.06,0,.39.06.13,0,.45.06.45.06.39,0,.84-.26,1.22-.26.52,0,1.03.19,1.55.26.26,0,.51-.06.77-.13.19,0,.32.06.52,0,.26,0,.45-.13.71-.19.26,0,.45.13.71.13.13,0,.26-.19.32-.19.64-.13,1.42.13,2-.06.32,0,.39.26.64.32.45-.13.71-.26,1.03.13.32-.26.64-.45,1.16-.45.32-.06.84.26,1.42.19.32.19,1.29-.06,1.54.26.39-.06.71-.13,1.03-.19h.45c.19,0,.39,0,.64.06.26,0,.45.13.77.19.64.13,1.42.06,2.12.06,1.16-.06,2.51-.45,3.22-.13.13.06.64.64.71.84s.06.58.06.84c.06,1.03-.13,2.38-.06,3.61,0,.64.19,1.29.26,1.8.06.58.32,1.16-.13,1.54Z"/>
      <path class="cls-1" d="m410.13,912.8c0,.26.13.51.13.71-.06.26-.19.64-.26.9-.13.71-.06,1.42-.45,1.87.19.32,0,.84,0,1.16,0,.52.19.97.13,1.48,0,.39-.13.77-.19,1.22-.13.77-.32,1.61-.38,2.58,0,.19-.13.39-.13.64,0,.32.32.71-.13,1.03.32.97.19,2.25.45,3.22,0,.32-.26.45-.19.84.19.39.13.84.19,1.22,0,.19.13.32.19.51,0,.19-.19.45-.13.52.06.32.26.64.26.84.13.38.13.84.06,1.61,0,.19-.13.39-.06.58,0,.32.19.58.19.84-.06.32-.13.71-.13,1.03-.06.58.06.9-.06,1.48-.13.26,0,.32,0,.39-.13.9-.39,2-.58,3.03-.06.13-.19.26-.26.39,0,.19.13.39.13.52-.06.32-.19.64-.26.96-.13.64-.19,1.35-.45,1.87-.06.13-.19.13-.32.32-.06.13,0,.39-.06.52-.06.06-.32.19-.32.26-.39.52-.84,1.29-1.29,1.87-.9.84-1.61,1.74-2.25,2.77-.26.32.06.64-.13.9-.58.52-1.16,1.03-2.12,1.22-.13.32-.26.71-.45,1.03-.58,0-.96.45-1.48.71-.19.06-.52.19-.84.26-.38.13-.71.19-1.22.38-.13.06-.26.19-.32.19-.26.13-.58.13-.84.19-.84.26-1.35.45-2.51.45,0,0-.13.13-.32.13-.06,0-.13-.13-.26-.13-.45.06-.77.26-1.16.32-.13,0-.32-.13-.52-.13-.45,0-1.29,0-1.8-.13-.26-.13-.39-.13-.58-.32-.13-.13-.52-.45-.71-.58-.38-.13-.84,0-1.16-.13-.26-.06-.52-.39-.84-.52-.32-.13-.64-.06-1.03-.13-.39-.52-.97-.9-1.61-.9-.39-.58-1.29-.71-1.68-1.35-.38-.13-.71-.13-1.03-.32,0-.06-.06-.19-.06-.26-.06,0-.19.06-.26,0-.13-.13-.13-.39-.26-.58-.13-.19-.32-.39-.39-.58-.19-.19-.45-.19-.45-.52-.39.06-.32-.26-.58-.32-.32-.64-.45-1.48-1.1-1.8.13-.26-.19-.39-.19-.52-.19-.58-.13-1.29-.32-2-.06-.26-.32-.51-.39-.84-.06-.26,0-.58-.06-.9-.13-.71-.26-1.48-.06-2.32-.71-1.03-.45-2.57-.84-3.73,0-.32.13-.58.19-.84.13-.32-.32-.13-.26-.38-.13-.58-.13-1.16.13-1.61-.26-.51-.19-.9-.19-1.54,0-.26-.13-.71-.19-1.22,0-.32.06-.58.06-.84-.06-.32-.19-.58,0-.84-.19-.26-.13-.64-.39-.84.26-.32-.06-1.29.26-1.67-.19-.32-.52-.9-.19-1.35-.06-.32-.32-.64-.39-1.03.06-.32.06-.39.13-.71,0-.19-.13-.39-.13-.45,0-.26.19-.32,0-.64-.19-.39.19-1.22-.13-1.74.06-.19.26-.32.19-.64.06-.32-.32-.64-.06-1.03.19-.32-.13-.13-.13-.58.06-.58.06-1.16.06-1.93v-.39c.06-.06.26-.19.26-.19,0-.13-.19-.32-.19-.52-.06-.26.06-.45.06-.64,0-.45-.32-.9-.06-1.35-.39-.64-.19-1.48-.13-2.19,0-.32.19-.71-.13-.9.39-.64,0-1.61.39-2-.19-.58-.45-1.1-.26-1.74-.06-.52-.71-.45-.97-.77-.26-.71.19-1.22.19-2,.64-.52,1.1-1.8,2.38-1.29.06.26.19.39.45.45.58-.32,1.29.13,1.93.13.32,0,.58-.13.84-.06.45,0,.9.26,1.35.32.39.06.84-.06,1.16,0,.32.13.9.52,1.29.71.19.06.32.06.45.06.26.19.51.39.84.64.13.71-.26,1.29-.39,1.87-.06.45,0,.9-.13,1.35-.06.39-.32.64-.45,1.03-.19.71-.19,1.55-.32,2.32-.13.71-.39,1.48-.39,2.12s.45,1.35-.06,1.87c.26.71.32,1.42.39,2.12.13.64.26,1.35.26,2.06,0,.26-.19.39-.19.64-.06.19.06.39.06.58-.06.45-.13.84-.13,1.29,0,.26.19.45.19.84,0,0-.13.26-.13.38.06.39.06,1.29.06,2,.06.39.19.84.19,1.22.06.64-.06,1.35-.06,2,.06,1.03.38,2-.06,2.9.19.84.19,1.74.26,2.71.13,1.35.45,2.83.64,4.19.06.39.13.9.19,1.35.06.39.26.84.39,1.22.13.64.19,1.22.45,1.67.13.13.26.19.32.32.06.06,0,.26,0,.32.32.26.38.32.51.45.39.45.64,1.09,1.03,1.35.13.13.64.26,1.03.45.32.13.64.45.9.51.45.19,1.35.32,2.06.26.52,0,.96-.38,1.54-.26.26-.32.71-.32.97-.51.51-.32.84-.77,1.35-1.03.26-.45.58-.84.9-1.29.13-.26.26-.52.45-.71.13-.26.32-.39.39-.64.13-.26.13-.58.26-.84.13-.45.32-.9.52-1.54.06-.06.19-.26.26-.32,0-.13-.06-.32,0-.52s.32-.39.38-.58c.26-.45.52-.9.71-1.48,0-.13-.06-.32,0-.52,0-.06.19-.13.19-.26.06-.26,0-.51,0-.84.06-.19.26-.39.26-.52,0-.26-.13-.58-.13-.84.06-.64.06-1.29.19-2,0-.26,0-.38.19-.58-.06-.26,0-.52.06-.84v-.45c-.06-.45.13-.9.19-1.42.06-.39,0-.84.06-1.16.06-.39.19-.64.32-.9-.13-.32-.26-.58-.32-.84,0-.38.13-.77.13-1.29.06-.39-.06-.77-.06-1.09.06-.71.06-1.42.06-2.19,0-1.03.19-2,.19-3.03-.06-.71-.13-1.35-.19-2.06,0-.71-.19-1.35-.13-2,0-.32.13-.64.06-.96,0-.26-.13-.58-.13-.9-.06-.64.19-1.03,0-1.67-.06-.19-.06-.32-.06-.52-.19-1.16-.32-2.64-.06-4.06.26-.13.58-.13.64-.39.58-.13,1.1.19,1.48.13.32-.06.51-.26.84-.39.52.13,1.16.26,1.68,0,.26-.13,1.03-.06,1.54-.13.19-.06.32-.19.51-.19.19-.06.39.06.64.06.58,0,1.16-.13,1.54.06.32.32.45.64.58.97.32.52.06,2.12.06,3.28,0,.71,0,1.48.13,2.19.06.19.19.39.19.52,0,.19-.13.52-.13.77Z"/>
      <path class="cls-1" d="m448.7,905.65c-.13.13-.26.26-.32.45-.06.06-.06.19-.13.26-.32.26-.45.39-.52.52-.13.19-.13.38-.26.51-.19.32-.58.52-.71.71s-.13.32-.26.52c-.19.39-.45.84-.71,1.22-.13.13-.13.39-.26.52-.06.13-.32.06-.39.19-.26.32-.32.58-.45.96-.97.84-1.74,1.93-2.77,2.71.06.9-.64,1.22-.96,1.74-.26.45-.26,1.1-.77,1.35.06.32-.13.26-.13.51-.19.13-.32.45-.58.52.06.32-.32.39-.45.64-.06.13-.06.38-.13.58-.26.19-.19.32-.19.45-.13.19-.32.32-.45.52-.39.58-.77,1.54-1.29,2.25-.13.13-.26.19-.45.39-.13.19-.26.32-.39.51-.32.39-.58.9-1.16,1.03-.13.71-.77,1.03-1.09,1.61-.13.19-.06.64-.32.84-.19.77.13,1.61.13,2.25,0,.32-.13.45-.13.77.06.32.19.77.19,1.1,0,.39-.06.58-.13.96-.13,1.8-.06,4.06,0,5.73,0,.52-.06,1.1-.06,1.61.06.38.13.64.13.96-.06.32-.19.58-.26.9-.06.52.06,1.09.06,1.61v.71c.06,1.22-.06,2.38-.06,3.93,0,.32.13.77-.13,1.03.13.64.19,1.29.13,2.12.19.39.84,1.16.71,1.93-.06.32-.32.52-.45.77-.39,0-.77.19-1.16.13,0,0-.13-.06-.32-.06-.64.06-1.48.39-2.25.45-1.1.06-2.45-.19-3.67-.26-.9-.06-1.93.19-2.45-.52-.13-.19-.13-.45-.06-.71,0-.06.19-.06.19-.19-.06-.64,0-1.03.19-1.35-.19-.77-.26-1.42-.13-2.32,0-.19.13-.26.13-.39,0-.26-.06-.64,0-1.16.06-.19.13-.52.13-.71,0-.45-.26-1.03-.26-1.67,0-.52.19-1.03.26-1.54,0-.9-.39-1.8,0-2.58-.06-.32-.26-.58-.26-.84-.06-.39.06-.77.13-1.16,0-.06-.06-.52,0-.96.06-.39.32-.71.32-1.1.06-.64-.06-1.42,0-2.12,0-.32.19-.77.19-1.09s-.19-.58-.19-.84c0-.32.06-.77.13-1.03.13-.58.26-.71.13-1.35-.06-.45-.06-.71-.26-1.03-.06-.19-.13-.32-.19-.45-.32-.45-.84-.77-1.16-1.29-.06-.13-.13-.32-.19-.52-.19-.45-.51-.9-.58-1.54-.39-.32-.58-.77-.9-1.29-.06-.19-.32-.45-.39-.84-.06-.26-.32-.26-.39-.52-.13-.58-.77-.97-1.03-1.48-.19-.32-.19-.77-.39-1.16-.19-.45-.71-1.09-.71-1.67-.64-.52-1.22-1.03-1.42-2-.96-.9-1.22-2.45-2.32-3.28,0-.39-.26-.58-.26-.97-.32-.52-.84-.77-1.22-1.22-.13-.19-.13-.39-.19-.58-.06-.06-.13-.06-.19-.19-.32-.45-.58-.64-.84-.97-.39-.51-.64-1.16-1.29-1.48-.06-.58-.77-1.09-.71-1.74.06-.58.38-.9.84-1.22.06-.45.13-.77.39-.97.26-.26.77-.19,1.22-.06.58-.32,1.48-.26,2.06-.58.32,0,.71-.06.84.13.32,0,.52-.32.84-.39.19-.06.45,0,.64,0s.32-.19.52-.19c.26,0,.64.13.84.19.32.19.58.84.77,1.16.32.45.64.77.71,1.16.52.19.58.71.9,1.1.32.32.71.58.97.96.13.26.26.58.39.84.06.13.19.19.32.32.06.13,0,.26.06.39.32.51.77.9.9,1.48.19.32.52.52.71.84.19.39.19.9.39,1.29.06.13.19.26.32.39.06.13,0,.26.06.32.39.38.45.77.64,1.09.13.32.32.58.45.9.19.32.26.64.39.96.19.32.45.52.64.84.45.77.9,1.74,1.61,2.45.13-.26.38-.45.64-.64-.32-.19.26-.45.19-.84.13,0,.13-.13.26-.19.32-.26.32-.45.39-.58.26-.39.58-.64.84-1.03.13-.13.32-.45.45-.64.32-.38.64-.58.97-1.09l.19-.39c.19-.32.45-.52.45-.84.32-.19.45-.39.64-.64.13-.13.26-.13.32-.26s0-.32.13-.45c.06-.13.19-.13.32-.32.19-.32.13-.45.19-.58.32-.39.32-.45.51-.64.19-.26.52-.32.58-.39.06-.13.06-.26.19-.39.32-.45.9-1.16,1.48-1.42.06-.39.19-.58.32-.97.06-.13.19-.26.32-.38s.19-.32.32-.52.32-.39.45-.64c.26-.64.19-1.67.96-1.93.45-.13,1.29.13,2.19.06.64-.06,1.29-.19,2.25-.19.39.06.77.13,1.16.13,1.1,0,2.06-.26,2.51-.26,1.1.13,1.8.97,1.22,1.93-.06.06-.19.19-.32.39Z"/>
      <path class="cls-1" d="m496.93,934.69c-.06.26-.06.52-.13.71-.06.26-.38.51-.45.77-.06.06-.06.39-.13.39-.13.58.06,1.29-.26,2.06,0,.06-.13.32-.19.39-.13.26-.32.26-.45.64,0,.13,0,.26-.06.38-.06.06-.19.06-.26.13-.06.19-.32.64-.64.84,0,.19-.13.39-.06.71-.71.45-.71,1.22-1.22,1.93-.19.19-.19.26-.19.32-.32.26-.38.45-.51.58-.26.19-.52.26-.77.52-.13.13-.13.32-.19.45-.45.39-.96.71-1.16,1.29-.26.06-.52.19-.64.32-.13.06-.13.19-.26.32-.06.06-.19,0-.26.06-.13.06-.13.26-.26.32-.26,0-.19.19-.19.19-.32.19-.64.26-.84.38-.45.45-1.48.77-2,1.29-.26,0-.58.32-.64.13-.26.26-.39.51-.71.71-.38.26-1.03.19-1.16.71-.26,0-.45-.06-.52-.13-.52.45-1.03.84-1.93.9-.45.38-1.74.71-2.71.77-.38,0-.9-.06-1.22-.06-.52.06-.96.39-1.42.39-.32.06-.64-.13-1.03-.32-.13.13-.19,0-.39,0-.51.06-1.03.26-1.54.26-.52.06-1.03-.06-1.48-.13-.19.13-1.03,0-1.22-.19-.58.39-1.16-.13-1.74-.26-.84-.26-1.74,0-2.32-.58-.96,0-1.67-.26-2.12-.77-.26.06-.45-.06-.64-.13-.45-.13-.64-.26-1.03-.52-.06-.06-.13-.19-.19-.26-.13-.06-.38-.13-.64-.32l-.19-.19c-.19-.13-.39-.19-.52-.32-.26-.26-.45-.64-.71-.84-.45,0-.71-.26-1.09-.64-.39-.32-1.1-.77-1.22-1.29-.52-.13-1.1-.32-1.35-.64-.06-.32-.26-.26-.39-.45-.26-.26-.64-.64-.9-.97-.13-.06-.13-.32-.13-.58-.26-.32-.52-.52-.84-.77-.06-.19-.19-.39-.26-.64-.38-.32-.77-.77-1.03-1.22-.64-.45-.58-1.54-1.29-1.93.06-.71-.45-1.1-.71-1.67-.19-.45-.19-.97-.26-1.48-.06-.26-.32-.58-.32-.9,0-.13.13-.19.13-.32-.06-.26-.26-.58-.32-.84-.06-.32,0-.71-.06-1.03l-.19-.97c0-.26.13-.71-.19-.9.06-.26.13-.58.13-.84s-.13-.39-.19-.64c.13-.26,0-.32,0-.32.06-.58.19-.97.06-1.68-.19-.32.06-.64,0-1.22,0-.19-.13-.39-.19-.64,0-.26,0-.71.06-1.03,0-.32.19-.58.19-.9.06-.19-.06-.39-.06-.64,0-.19.13-.39.13-.52-.06-.26-.19-.52-.19-.71,0-.45.13-.9.19-1.35.13-.45.13-1.03.26-1.35.06-.19.26-.32.32-.51.26-.52.52-1.16.77-1.74.32-.84.39-1.8,1.09-2.25.06-.64.39-1.03.52-1.55,0-.32.32-.32.45-.45-.06-.39.13-.52.26-.84.06-.19.32-.39.38-.58.06-.13.06-.45.13-.64s.32-.19.19-.52c.45-.19.71-.64.9-1.1.45-.19.77-.51.96-1.03.52-.06.52-.64,1.16-.58.13-.26.32-.39.58-.52.13-.26.45-.26.58-.51.64-.06,1.03-.52,1.55-.77.51-.26,1.09-.32,1.61-.71.77.06,1.16-.19,1.54-.51.58.13,1.09-.06,1.54-.26.64-.19,1.8-.45,2.64-.64.71-.19,1.29-.26,2-.52.13,0,.32,0,.52-.06.13-.06.13-.19.32-.19.19-.06.45,0,.71,0,.19,0,.39.19.64.19.06.06.13-.06.26-.06s.13.06.26.13c.13,0,.39.06.58.06.19.06.32.19.52.26.9.19,1.61.06,2.06.58.58-.26,1.48-.06,2.19-.06.39,0,.45.32.71.39.45,0,.9.06,1.29.19.13,0,.26.13.39.19.19.06.45-.06.64,0,.26.06.58.26.77.32.77.26,1.42.26,1.8.9.32,0,.26-.32.71-.19.71.32,1.67.32,2.45.64.13.06.13.19.26.26.13,0,.19.06.26.06.26.13.38.26.51.32.39.19.9.26.97.64.32,0,.64.19.9.32.39.26.71.64,1.16.97.13.13.19.32.39.45.13.13.38.13.51.19.26.26.39.58.58.84.71.06.9.58,1.48.71.19.32.39.58.71.9,0,.06,0,.19.06.26.13.06.32.13.39.19.13.13.19.39.32.64.13.26.19.58.39.9.26.45.84,1.03.71,1.93.39.26.52.84.77,1.35.06.06.06.26.13.32.26.26.19.52.26.71.13.39.32,1.09.38,1.67.06.32-.06.58,0,.84.13.84.52,1.61.9,2.19-.06,1.03,0,1.8-.06,2.83-.06,1.1.26,2.32.19,3.73,0,1.61-.45,3.48-.9,4.96Zm-6.12-10.62c0-.39.06-.84,0-1.16s-.26-.58-.38-.9c-.06-.39.26-.52,0-.77-.26-.52-.45-1.22-.64-1.87-.06-.19-.26-.26-.39-.38-.19-.19-.26-.32-.45-.58-.06-.13-.26-.26-.39-.39-.13-.26-.13-.45-.32-.64-.52-.58-1.35-1.03-2.12-1.61-.39-.26-.64-.58-1.03-.84-.13-.13-.45-.19-.58-.32-.26-.19-.38-.45-.51-.58-.71-.32-1.61-.19-2.19-.84-1.1.13-2.12-.58-3.54-.52-.26-.06-.38-.26-.71-.32-.58.19-.97,0-1.42-.13-.32-.06-.58-.19-.84-.26-.58-.13-1.16-.39-1.67-.45-.13,0-.26.13-.32.13-.45.06-.9-.26-1.35-.26-.39,0-.9.19-1.22.19,0,0-.13-.19-.19-.19-.13-.06-.32,0-.45,0-.64-.13-1.74-.13-2.25-.26-.39-.19-.84-.19-1.16-.45-.26.32-.39.39-.58.51-.58.19-.84.64-1.29.9-.39.19-.9.26-1.29.45-.19.13-.32.39-.52.52-.19.19-.45.26-.64.38-.39.32-.64.84-1.16.97-.19.39-.58.84-.84,1.22-.32.39-.58.9-1.09,1.1,0,.64-.39.96-.45,1.54.06.19-.19.13-.26.19-.26.52-.32.77-.45,1.16-.06.19-.13.32-.26.52-.13.32-.38.58-.51.9s-.26.64-.45.9c-.32.64-.52.9-.64,1.67-.19.84-.45,2-.39,2.51.06.13-.13.26-.13.26,0,.32.06.58,0,.84,0,.26-.19.45-.19.64-.26,1.16,0,2.25.13,3.41.06.9-.06,1.8.06,2.38,0,.26.26.58.39.84.06.39.06.71.19,1.1,0,.06.13.26.19.38.13.52.26,1.22.45,1.48.26.32.58.51.84.84s.39.71.58,1.03c.13.19.32.26.39.45.13.19.19.38.32.51.26.32.58.52.84.84s.45.71.71,1.09c1.22.64,2.19,1.48,3.15,2.45,1.1.13,2.25.71,3.09,1.03.32.06.77.26,1.16.32.32,0,.64-.13,1.03-.13.77.06,1.29.38,1.93.51.71.06,1.42-.06,2.06.26.39-.26.64-.19,1.09-.13.77-.58,2-.26,3.03-.51.13-.06.19-.19.26-.19.19-.13.26-.06.45-.13.58-.26.96-.52,1.48-.71.26-.06.58-.19.84-.26.13-.06.13-.19.32-.32.13-.13.32-.13.52-.19.26-.13.52-.45.9-.38.26-.52.71-.71,1.29-.84.13-.32.39-.45.52-.58.26-.19.26-.06.32-.32.06-.13.38-.32.45-.38.32-.45.64-.9.97-1.22.06-.39.39-.45.52-.64.06-.45.26-.77.45-1.1.13-.39.45-.64.45-1.16.45-.13.45-.64.64-1.03,0-.06.13-.06.19-.19s.06-.26.13-.32c.13-.32.32-.58.45-.84.13-.32.26-.52.38-.77.13-.19.13-.45.26-.64.06-.19.26-.32.32-.52.06-.32,0-.77.13-1.16.19-.32.45-.58.52-1.09.06-.32-.13-.77-.06-1.16.06-.32.32-.71.45-1.09.13-.52.38-1.22.32-1.48,0-.13.13-.26.13-.32v-.71c.06-.39.26-.58.26-.9,0-.39-.19-.84-.19-1.29Z"/>
      <path class="cls-1" d="m513.87,951.17c0,.19.32.06.32.26-.06.32-.19.84-.26,1.09,0,.13.13.19.13.32-.06.32-.26.52-.32.71s0,.45,0,.64c-.06.06-.19.06-.26.13-.06.13,0,.38-.13.58-.19.06-.39.19-.58.19-.13.39.13.39.06.77-.38.45-.58,1.16-1.09,1.48,0,.64-.26,1.1-.71,1.35-.06.32-.32.64-.45.9-.13.32-.26.71-.45.96-.06.13-.32.13-.39.32-.13.13-.13.39-.26.52-.06,0-.26,0-.32.06-.26.19-.58.71-1.03.9-.19.06-.45.06-.64.13s-.71.32-.97.26c-.32,0-.38.32-.71.32-.45-.26-.97-.39-1.35-.64,0-.52.19-.64.13-1.16.77-.52.58-2.06,1.35-2.58-.26-.9.51-1.48.64-2.19.06-.19-.06-.32-.06-.38,0-.19.06-.71.13-1.16,0-.39.26-.9.19-1.54,0-.39-.39-.71-.26-1.16-.32,0-.64,0-.96.06-.32.13-.52.39-.84.32-.58-.06-.64-.58-1.22-.84.45-.84-.39-1.93.26-2.38-.52-.58-.45-1.67.26-2,.06-.77.71-1.42,1.22-1.87.39-.39,1.74-.19,2.19-.77.45.13.84-.19,1.16-.19.52.06.71.52,1.29.58.32.39.52.84.9,1.03.26.32.19.77.45,1.1.39-.06.77-.19,1.1,0,.32,0,.45.39.71.52.39.26.77.58,1.03.96-.19.52.19,1.35.06,2,0,.13-.06.45-.32.39Z"/>
      <path class="cls-1" d="m585.48,928.25c0,.06-.13.13-.13.32.19,1.22-.32,2.9-.71,4.06-.26.71-.64,1.42-.77,2.25-.71.84-1.16,1.87-1.74,2.83-.13.19-.19.45-.32.64-.06.06-.26.13-.32.19-.13.19-.26.58-.39.84-.58.64-1.48,1.03-1.74,1.93-.77.26-1.03,1.03-1.67,1.48-.19.19-.52.19-.77.32-.39.26-.9.64-1.35,1.03-.19.13-.64.32-1.03.45-.39.19-.58.64-.96.84-.13.06-.32.06-.45.06-.19.13-.58.39-.9.52-.13.06-.32,0-.45.13-.06.06-.13.26-.19.26-.13.13-.26.06-.45.13-.13.06-.58.39-1.1.26-.38.32-.84.32-1.29.52-.39.13-.84.32-1.22.52-.19.06-.45.19-.64.26-.13.06-.32,0-.45,0-.06,0-.13.19-.19.19-.19.06-.45.06-.71.13-.19,0-.52.13-.64.19-.26,0-.26-.13-.39-.13-.26,0-.71.26-1.09,0-.32.13-.64.39-1.16.45-.26.06-.71-.06-1.09,0-.26,0-.32.13-.64.19-.45-.13-1.48.26-1.87.26s-.84-.13-1.16-.26c-.32-.06-.64-.06-.71-.39-.39-.06-.26.39-.71.26-.19-.26-.45-.45-.84-.52-.26-.06-.39-.19-.45.19-.19.19-.26-.06-.58,0-.19.32-.84.26-1.09.58-.97-.19-1.74.13-2.71.06-.13-.13-.39-.39-.58-.64-.19-.19-.39-.51-.39-.71-.06-.52.06-.9.19-1.35-.06-.32-.13-.58-.13-.84-.06-.32.13-.45.19-.77,0-.13-.13-.19-.06-.39,0-.64.26-1.74.26-2.57,0-1.03-.06-2.25-.13-3.48-.06-.13.06-.06,0-.26-.13-.38-.06-1.16-.06-1.67-.06-1.35,0-3.48,0-5.09,0-.26.13-.32.13-.45-.06-.26-.19-.52-.19-.84s.13-.64.13-1.03c0-.84-.13-1.93.06-2.9-.13-.32-.32-.58-.45-.96,0-.13.13-.13.13-.26,0-.32-.19-1.03-.19-1.61.13-.26.06-.26.06-.26,0-.71.26-1.35-.19-1.93.26-.97-.06-1.93-.06-2.9,0-.52.06-.9.06-1.42,0-.19.13-.39.13-.45s-.13-.19-.13-.39c0-.26.13-.32.13-.45,0-.32-.19-.58-.19-.9,0-.39.19-.9.32-1.22.19-.45.06-1.09.06-1.67,0-.32.13-.64.13-.96,0-.64-.13-1.29-.06-1.87,0-.32.19-.64.19-.9.06-.45-.26-.97.06-1.35.06-.39-.52-.52-.19-.84.06-.32.26-.58.45-.84.52-.06.64-.06.9.26.32-.13.45-.45.77-.51.64-.13,1.61-.19,2.25-.19.45,0,.84.06,1.22.06.71-.06,1.35-.26,2-.26.32,0,.71.06,1.03.13.52,0,.97.06,1.48,0,.32-.13.39,0,.39,0,.52-.06.97-.13,1.35-.19.64,0,1.1.19,1.68.26.39.06.71.06,1.03.13s.64.26.97.32c.84.19,2-.06,2.77.52.26,0,.45-.06.71,0,.19.06.39.19.52.19.32.06.58-.13.84-.06s.58.26.84.32c.58.13,1.29,0,1.87.13.13.06.26.19.39.26.19.06.39.06.52.13.32.26.64.19.84.32.06,0,.13.13.19.19.64.39,1.48.97,2.19,1.48.06.13.13.26.26.32.32.26.52.32.71.64.51.58,1.16,1.29,1.74,1.93.26.19.52.39.71.64,1.03,1.03,1.68,2.25,2.32,3.35,0,.32.19.45.13.84.39.52.64,1.16.97,1.8.13.19.26.39.32.52.13.32.06.77.19,1.16.06.32.26.64.38.97.06.19,0,.39.06.58.13.38.52.9.58,1.35.06.19,0,.45,0,.64.06.32.26.64.32.96.06.97,0,2.12,0,3.09v.84Zm-6.7-3.15c-.06-.13-.06-.26-.06-.45-.06-.06-.19-.19-.19-.26-.06-.19,0-.39,0-.52-.06-.32-.13-.64-.19-.84-.06-.26-.26-.9-.32-.97-.13-.19-.32-.58-.38-.64-.39-.45-.45-1.22-.71-1.8-.06-.19-.19-.32-.26-.51-.13-.19-.19-.39-.19-.58-.32-.39-.84-.52-.84-1.16-.45-.19-.77-.64-1.03-.9-.06-.13-.13-.32-.19-.39s-.26-.13-.39-.26c-.13-.06-.19-.19-.32-.32-.26-.19-.52-.26-.58-.58-.97-.26-1.35-.97-2.25-1.22-.26-.26-.26-.71-.71-.77s-.9.06-1.35,0c-.39-.06-.64-.39-.97-.45-.26-.06-.51.13-.84.13-.32-.06-.64-.32-.9-.39-.84-.06-1.74.06-2.57,0-.71-.13-1.35-.32-2-.39-.19,0-.32.06-.51.06-.19.06-.39-.06-.52-.06-.19,0-.32.06-.52.06-.64-.06-.96,0-1.48,0-.32,0-.64-.19-.9-.13-.19,0-.51.19-.51.19-.13,0-.13-.13-.26-.13-.26.06-.64.13-.9.19-.45,1.61-.06,3.16-.32,4.77-.06.19-.19.39-.19.64-.06.26.06.71.06,1.1s-.13.84-.13,1.16c0,.26.13.64.19.97,0,.71-.13,1.48-.06,2.19.06.52.26,1.09.39,1.61.13.64.19,1.29.26,1.93.06,1.1-.19,2.06-.19,2.77,0,.39.13.64.13.96-.06.32-.19.64-.26,1.03s-.06.84-.13,1.22c-.19,1.67-.06,4.06-.64,5.22.45.77,0,1.67-.06,2.57,0,.39.13.77.13,1.16-.06.32-.26.58-.26.9,0,.39.19.64.19,1.03.45.06,1.03,0,1.35.06h.32c.52.06.96.26,1.42.26.19-.06.39-.19.64-.19.58-.19.96-.19,1.35-.32.52-.13.84-.19,1.16-.39.06-.06.26-.26.32-.32.13-.06.32,0,.52-.06.13-.06.26-.19.39-.19.9-.26,2-.32,2.64-.58.64-.26,1.22-.71,2.06-.58.45-.52,1.09-.39,1.67-.58.45-.13,1.09-.58,1.42-.71s.64-.26,1.03-.26c.9-1.16,2.38-1.67,3.09-3.09.39.06.39-.26.71-.26.9-1.67,2.25-2.83,2.71-4.96.19-.26.45-.45.64-.71-.13-.9.32-1.67.39-2.45,0-.51-.13-.77-.06-1.09,0-.26.19-.45.19-.71,0-.32-.13-.9-.19-1.03Z"/>
      <path class="cls-1" d="m622,907.58c.26.32,0,.64,0,1.03-.06.9.06,1.87-.06,2.7-.06.39-.26.71-.45,1.03s-.32.71-.52.9c-.71.45-1.74-.32-2.64.06-.64-.51-1.35,0-2.06-.58-.77.26-1.48-.06-2.25-.13-.26,0-.52.13-.77.06-.39-.06-.84-.32-1.29-.32-.32-.06-.71.06-1.1.06h-1.09c-1.1-.06-2.38-.19-3.93-.32-1.29-.13-2.51-.19-3.99,0-.39.77-.13,1.74-.06,2.64.06.9.13,1.87.19,2.77,0,.26-.13.52-.13.77,0,.52.13,1.35.13,2.06,0,.52-.19.97.06,1.48.39.13.9.19,1.29.19.52.06,1.09.06,1.61.06.9-.06,1.8-.06,2.71-.06,1.42,0,2.7,0,4.38-.13.77-.06,1.48-.32,2.19.06.45-.13.96-.13,1.35-.19s.58.06,1.03.06c.19,0,.39-.13.52-.13.77.06,1.42.19,2.12.19.39-.06.77-.19,1.1-.13.38,0,.38.39.51.64.32.71.26,1.29.19,2.32-.06.06.13.13.06.32,0,.06-.19.52-.19.77-.06,1.03,0,1.93.32,2.77-.19.39-.32.97-.64,1.29-.32-.06-.58.19-.84.19-.39,0-.58-.19-.9-.32-.13-.26-.71.26-.64-.32-.32-.13-.32.32-.52.38-.32.13-.9,0-1.16.32-.45-.32-1.03-.19-1.54-.06-.45-.19-.84-.19-1.54-.26-.39-.19-1.09.26-1.48.32-.77-.26-1.48,0-2.06.26-.45.06-.39-.39-.77-.32-.32.26-1.09.06-1.35.39-.45-.45-1.42.13-1.87-.39-.19.32-.52.06-.9.13-.32,0-.64.13-.96.13-.45.06-.97-.26-1.42,0-.39.26-.19.71-.26,1.16-.06.26-.19.51-.19.77,0,.32.19.64.13.97,0,.64-.26,1.42-.45,2.19-.06.19-.19.45-.19.58-.13.71.06,1.42-.39,2,.13.26.19.45.19.71.06.64.06,1.42.06,2.12,0,.52,0,1.1-.13,1.61-.06.26-.19.52-.19.77-.06.45.19.96.06,1.42.77.45,1.67.19,2.77.19.19,0,.32-.13.45-.13.97.06,2.51-.13,3.74-.13.64,0,1.16.19,1.74.06.58-.13,1.48-.26,2.12-.19.13.06.38-.06.38-.06.58,0,1.03.13,1.55.13.71,0,1.35-.06,2-.13.32-.06.64-.19.9-.19.13,0,.39.13.52.06.06,0,.26-.06.45-.06s.32.06.52.13c.51,0,1.03-.32,1.74-.19.26.19.19.58.45.77-.06.39.32.39.38.71.13,2-.26,3.93-.32,6.12-.13.26-.45.32-.77.52-.26.13-.52.38-.84.38s-.71-.19-1.03-.26c-.39,0-.77.13-1.22.13-.71,0-1.54-.13-2.38-.19-.19,0-.38-.13-.51-.13-.39.06-1.29.06-1.67-.19-.39-.06-.52.26-.84.26-.84-.26-1.87-.19-2.9-.26-.77-.06-1.48.13-2.32.13-.64.06-1.35-.06-2.06,0-.71,0-1.35.19-2,.13-.38,0-.71-.19-1.09-.19-.19-.06-.19.06-.32.06s-.45-.19-.77-.19c-.71-.13-1.48-.06-2.12-.52-.32.13-.64,0-.97,0,0,0-.26.13-.39.13-.06-.06-.26-.13-.45-.13-.58.06-1.09.39-1.67.26-.13-.06-.19-.32-.39-.19-.19-.26-.19-.58-.32-.97-.06-.26-.26-.51-.26-.84-.06-.39.06-.71,0-1.03-.06-.45-.32-.84-.45-1.16.19-.9-.13-1.67-.06-2.71.13-.26,0-.32,0-.39,0-.32.13-.58.13-.84s-.13-.52-.19-.77c-.06-.39.06-.26,0-.71-.06-.58-.52-1.42-.26-2.19,0-.06.13-.32.13-.32,0-.19-.19-.32-.19-.52,0-.45.19-.9.26-1.42,0-.39-.06-.71-.13-1.03,0-.13.19-.26.13-.45,0-.06-.19-.06-.19-.32,0-.32.13-.71.13-1.03,0-.06-.13-.19-.13-.39.06-.26.32-.84-.06-1.16.39-.84,0-1.74,0-2.71-.06-.39.06-.71.13-1.16,0-.32-.13-.64-.13-.9.06-.52.06-.96.06-1.54,0-.26.13-.52.13-.77-.06-.19-.19-.58-.19-.84,0-.32,0-.58.19-.71-.19-.39-.39-.64-.06-1.03-.06-.26-.13-.45-.32-.51,0-.32.26-.32.26-.64.06-.32-.26-.19-.32-.39.26-.58.13-1.22.13-1.87,0-.26.13-.58.13-.84,0-.39-.13-.64-.06-.97,0-.19.19-.39.19-.58.19-.77.06-1.54.39-2.12-.52-1.03.06-2.64.06-4.12.06-1.03-.13-2.12,0-3.41,0-.13.13-.45.13-.45-.06-.45-.32-.96-.32-1.42s.19-.9.39-1.29c.13-.32.26-.64.58-.77,3.61.64,7.15-.13,10.3.13.9.06,1.8.39,2.7.45.58.06,1.16-.13,2-.19.19,0,.39.13.58.13.26,0,.45-.06.64-.06.38,0,.77.19,1.16.19.58.13,1.22.13,1.87.19.52,0,1.1-.13,1.67-.06.77,0,2,.32,2.96.38.13,0,.26-.13.45-.13.19.06.45.19.71.26,1.1.13,2.12,0,3.22.13.39.45.84,1.74-.06,2Z"/>
      <path class="cls-1" d="m682.21,913.89c-.58,0-1.16.06-2-.06-.19,0-.39-.19-.52-.19-.26,0-.58.06-.84.06-.32,0-.52-.06-.84-.13h-.71c-1.09-.13-2.19.13-3.35.26v.58c0,.19.13.32.13.32,0,.19-.13.32-.13.32,0,.26.06.45.06.71s-.13.52-.06.77c0,.19.13.45.19.71,0,.51-.13,1.16-.06,1.87,0,.26.13.51.19.84.06.26,0,.58.06.84.06.39.26.64.32,1.03,0,.39.06,1.1.06,1.48-.06.45-.26.9-.26,1.35,0,.39.32.71.39,1.16.13.58,0,1.29.06,1.93,0,.26.19.52.19.77.06.32-.06.64,0,.9.06.38.19.71.39,1.16.06.19.13.58.06,1.03,0,.19-.13.38-.13.51,0,.26.19.52.19.77.13,1.16-.06,2.45.26,3.61-.13.19-.06.58-.26.71.13.32.26.64.32.96,0,.32-.13.58-.13.9s.13.58.19.84c0,.32-.13.58-.13.96,0,.26.06.58.06.84,0,.58.06,1.16,0,1.67-.06.19-.26.45-.26.71,0,.39.06.9.06,1.35,0,.13-.06.26-.06.32.06.19,0,.19-.06.26,0,.13.13.26.13.45-.06.52-.26,1.1-.26,1.55,0,.19.13.26.19.51.13.45.19.71.32,1.16s.06.45.06.96c0,.26.26.64-.13.9.39.32.84.71.58,1.54-.13.58-.84.58-1.16.97-.26-.06-.45-.13-.51-.32-.9,0-1.87-.06-2.71-.39-.39.06-.64.19-1.03.26-.32,0-.64.06-.84-.13-.26.32-.64.26-1.35.32-.06,0-.13.13-.32.06-.39-.06-.39.06-.52.13-.26.06-.9,0-1.22.06-.45.06-.96.19-1.35-.06-.64-.13-.39-1.1-.71-1.55.06-.51.58-.71.32-1.22.26-.32.45-.64.64-.96.13-.39.13-.97.26-1.29s0-.52,0-.96c0-.58.19-1.1-.13-1.68.26-.51.19-1.09.19-1.54.06-.06.13-.13.13-.32,0-.26-.19-.58-.19-.84,0-.39.26-.84.26-1.22,0-.26-.19-.38-.19-.64-.06-.26.13-.64.13-.9,0-.32-.06-.71-.19-.96.19-.06,0-.45.19-.52-.19-.45-.13-1.03-.13-1.67-.06-.77,0-1.8-.19-2.58,0-.19-.13-.32-.19-.52-.06-1.22.58-2.58-.13-3.54.32-1.16-.13-2.9.13-3.93.06-.52-.39-.39-.32-.77,0-.58.06-1.42-.13-2-.39-.77-.13-2.64-.06-3.73-.13-.32-.32-.52-.38-.9-.13-.71.19-1.35.26-2.06.06-.58,0-1.22.06-1.61.06-.71-.19-1.67-.19-2.45-1.03.06-2.06.26-3.09.32-.19,0-.26-.13-.45-.13-.32.06-1.29.19-1.87.26-.19.06-.45.19-.64.19-.58.13-1.22,0-1.87.06-1.03.19-2.12.64-3.22.39-.45-.71-.19-1.61-.26-2.12-.06-.32-.06-.58-.06-1.1,0-.19.13-.39.13-.51s-.19-.26-.26-.32c-.06-.45.06-.97.06-1.35,0-.45-.45-.32-.39-.77.06-1.16-.64-2.9.26-3.8.45-.13.84-.26,1.48-.06.19,0,.45.06.64.06.39.13.84.32,1.22.38.26,0,.58-.13.9-.13.39,0,.77.13,1.16.13.19.06.06,0,.39.06.13,0,.45.06.45.06.39,0,.84-.26,1.22-.26.52,0,1.03.19,1.55.26.26,0,.51-.06.77-.13.19,0,.32.06.52,0,.26,0,.45-.13.71-.19.26,0,.45.13.71.13.13,0,.26-.19.32-.19.64-.13,1.42.13,2-.06.32,0,.39.26.64.32.45-.13.71-.26,1.03.13.32-.26.64-.45,1.16-.45.32-.06.84.26,1.42.19.32.19,1.29-.06,1.54.26.39-.06.71-.13,1.03-.19h.45c.19,0,.39,0,.64.06.26,0,.45.13.77.19.64.13,1.42.06,2.12.06,1.16-.06,2.51-.45,3.22-.13.13.06.64.64.71.84s.06.58.06.84c.06,1.03-.13,2.38-.06,3.61,0,.64.19,1.29.26,1.8.06.58.32,1.16-.13,1.54Z"/>
      <path class="cls-1" d="m735.98,934.69c-.06.26-.06.52-.13.71-.06.26-.38.51-.45.77-.06.06-.06.39-.13.39-.13.58.06,1.29-.26,2.06,0,.06-.13.32-.19.39-.13.26-.32.26-.45.64,0,.13,0,.26-.06.38-.06.06-.19.06-.26.13-.06.19-.32.64-.64.84,0,.19-.13.39-.06.71-.71.45-.71,1.22-1.22,1.93-.19.19-.19.26-.19.32-.32.26-.38.45-.51.58-.26.19-.52.26-.77.52-.13.13-.13.32-.19.45-.45.39-.96.71-1.16,1.29-.26.06-.52.19-.64.32-.13.06-.13.19-.26.32-.06.06-.19,0-.26.06-.13.06-.13.26-.26.32-.26,0-.19.19-.19.19-.32.19-.64.26-.84.38-.45.45-1.48.77-2,1.29-.26,0-.58.32-.64.13-.26.26-.39.51-.71.71-.38.26-1.03.19-1.16.71-.26,0-.45-.06-.52-.13-.52.45-1.03.84-1.93.9-.45.38-1.74.71-2.71.77-.38,0-.9-.06-1.22-.06-.52.06-.96.39-1.42.39-.32.06-.64-.13-1.03-.32-.13.13-.19,0-.39,0-.51.06-1.03.26-1.54.26-.52.06-1.03-.06-1.48-.13-.19.13-1.03,0-1.22-.19-.58.39-1.16-.13-1.74-.26-.84-.26-1.74,0-2.32-.58-.96,0-1.67-.26-2.12-.77-.26.06-.45-.06-.64-.13-.45-.13-.64-.26-1.03-.52-.06-.06-.13-.19-.19-.26-.13-.06-.38-.13-.64-.32l-.19-.19c-.19-.13-.39-.19-.52-.32-.26-.26-.45-.64-.71-.84-.45,0-.71-.26-1.09-.64-.39-.32-1.1-.77-1.22-1.29-.52-.13-1.1-.32-1.35-.64-.06-.32-.26-.26-.39-.45-.26-.26-.64-.64-.9-.97-.13-.06-.13-.32-.13-.58-.26-.32-.52-.52-.84-.77-.06-.19-.19-.39-.26-.64-.38-.32-.77-.77-1.03-1.22-.64-.45-.58-1.54-1.29-1.93.06-.71-.45-1.1-.71-1.67-.19-.45-.19-.97-.26-1.48-.06-.26-.32-.58-.32-.9,0-.13.13-.19.13-.32-.06-.26-.26-.58-.32-.84-.06-.32,0-.71-.06-1.03l-.19-.97c0-.26.13-.71-.19-.9.06-.26.13-.58.13-.84s-.13-.39-.19-.64c.13-.26,0-.32,0-.32.06-.58.19-.97.06-1.68-.19-.32.06-.64,0-1.22,0-.19-.13-.39-.19-.64,0-.26,0-.71.06-1.03,0-.32.19-.58.19-.9.06-.19-.06-.39-.06-.64,0-.19.13-.39.13-.52-.06-.26-.19-.52-.19-.71,0-.45.13-.9.19-1.35.13-.45.13-1.03.26-1.35.06-.19.26-.32.32-.51.26-.52.52-1.16.77-1.74.32-.84.39-1.8,1.09-2.25.06-.64.39-1.03.52-1.55,0-.32.32-.32.45-.45-.06-.39.13-.52.26-.84.06-.19.32-.39.38-.58.06-.13.06-.45.13-.64s.32-.19.19-.52c.45-.19.71-.64.9-1.1.45-.19.77-.51.96-1.03.52-.06.52-.64,1.16-.58.13-.26.32-.39.58-.52.13-.26.45-.26.58-.51.64-.06,1.03-.52,1.55-.77.51-.26,1.09-.32,1.61-.71.77.06,1.16-.19,1.54-.51.58.13,1.09-.06,1.54-.26.64-.19,1.8-.45,2.64-.64.71-.19,1.29-.26,2-.52.13,0,.32,0,.52-.06.13-.06.13-.19.32-.19.19-.06.45,0,.71,0,.19,0,.39.19.64.19.06.06.13-.06.26-.06s.13.06.26.13c.13,0,.39.06.58.06.19.06.32.19.52.26.9.19,1.61.06,2.06.58.58-.26,1.48-.06,2.19-.06.39,0,.45.32.71.39.45,0,.9.06,1.29.19.13,0,.26.13.39.19.19.06.45-.06.64,0,.26.06.58.26.77.32.77.26,1.42.26,1.8.9.32,0,.26-.32.71-.19.71.32,1.67.32,2.45.64.13.06.13.19.26.26.13,0,.19.06.26.06.26.13.38.26.51.32.39.19.9.26.97.64.32,0,.64.19.9.32.39.26.71.64,1.16.97.13.13.19.32.39.45.13.13.38.13.51.19.26.26.39.58.58.84.71.06.9.58,1.48.71.19.32.39.58.71.9,0,.06,0,.19.06.26.13.06.32.13.39.19.13.13.19.39.32.64.13.26.19.58.39.9.26.45.84,1.03.71,1.93.39.26.52.84.77,1.35.06.06.06.26.13.32.26.26.19.52.26.71.13.39.32,1.09.38,1.67.06.32-.06.58,0,.84.13.84.52,1.61.9,2.19-.06,1.03,0,1.8-.06,2.83-.06,1.1.26,2.32.19,3.73,0,1.61-.45,3.48-.9,4.96Zm-6.12-10.62c0-.39.06-.84,0-1.16s-.26-.58-.38-.9c-.06-.39.26-.52,0-.77-.26-.52-.45-1.22-.64-1.87-.06-.19-.26-.26-.39-.38-.19-.19-.26-.32-.45-.58-.06-.13-.26-.26-.39-.39-.13-.26-.13-.45-.32-.64-.52-.58-1.35-1.03-2.12-1.61-.39-.26-.64-.58-1.03-.84-.13-.13-.45-.19-.58-.32-.26-.19-.38-.45-.51-.58-.71-.32-1.61-.19-2.19-.84-1.1.13-2.12-.58-3.54-.52-.26-.06-.38-.26-.71-.32-.58.19-.97,0-1.42-.13-.32-.06-.58-.19-.84-.26-.58-.13-1.16-.39-1.67-.45-.13,0-.26.13-.32.13-.45.06-.9-.26-1.35-.26-.39,0-.9.19-1.22.19,0,0-.13-.19-.19-.19-.13-.06-.32,0-.45,0-.64-.13-1.74-.13-2.25-.26-.39-.19-.84-.19-1.16-.45-.26.32-.39.39-.58.51-.58.19-.84.64-1.29.9-.39.19-.9.26-1.29.45-.19.13-.32.39-.52.52-.19.19-.45.26-.64.38-.39.32-.64.84-1.16.97-.19.39-.58.84-.84,1.22-.32.39-.58.9-1.09,1.1,0,.64-.39.96-.45,1.54.06.19-.19.13-.26.19-.26.52-.32.77-.45,1.16-.06.19-.13.32-.26.52-.13.32-.38.58-.51.9s-.26.64-.45.9c-.32.64-.52.9-.64,1.67-.19.84-.45,2-.39,2.51.06.13-.13.26-.13.26,0,.32.06.58,0,.84,0,.26-.19.45-.19.64-.26,1.16,0,2.25.13,3.41.06.9-.06,1.8.06,2.38,0,.26.26.58.39.84.06.39.06.71.19,1.1,0,.06.13.26.19.38.13.52.26,1.22.45,1.48.26.32.58.51.84.84s.39.71.58,1.03c.13.19.32.26.39.45.13.19.19.38.32.51.26.32.58.52.84.84s.45.71.71,1.09c1.22.64,2.19,1.48,3.15,2.45,1.1.13,2.25.71,3.09,1.03.32.06.77.26,1.16.32.32,0,.64-.13,1.03-.13.77.06,1.29.38,1.93.51.71.06,1.42-.06,2.06.26.39-.26.64-.19,1.09-.13.77-.58,2-.26,3.03-.51.13-.06.19-.19.26-.19.19-.13.26-.06.45-.13.58-.26.96-.52,1.48-.71.26-.06.58-.19.84-.26.13-.06.13-.19.32-.32.13-.13.32-.13.52-.19.26-.13.52-.45.9-.38.26-.52.71-.71,1.29-.84.13-.32.39-.45.52-.58.26-.19.26-.06.32-.32.06-.13.38-.32.45-.38.32-.45.64-.9.97-1.22.06-.39.39-.45.52-.64.06-.45.26-.77.45-1.1.13-.39.45-.64.45-1.16.45-.13.45-.64.64-1.03,0-.06.13-.06.19-.19s.06-.26.13-.32c.13-.32.32-.58.45-.84.13-.32.26-.52.38-.77.13-.19.13-.45.26-.64.06-.19.26-.32.32-.52.06-.32,0-.77.13-1.16.19-.32.45-.58.52-1.09.06-.32-.13-.77-.06-1.16.06-.32.32-.71.45-1.09.13-.52.38-1.22.32-1.48,0-.13.13-.26.13-.32v-.71c.06-.39.26-.58.26-.9,0-.39-.19-.84-.19-1.29Z"/>
      <path class="cls-1" d="m781.83,928.25c0,.06-.13.13-.13.32.19,1.22-.32,2.9-.71,4.06-.26.71-.64,1.42-.77,2.25-.71.84-1.16,1.87-1.74,2.83-.13.19-.19.45-.32.64-.06.06-.26.13-.32.19-.13.19-.26.58-.39.84-.58.64-1.48,1.03-1.74,1.93-.77.26-1.03,1.03-1.67,1.48-.19.19-.52.19-.77.32-.39.26-.9.64-1.35,1.03-.19.13-.64.32-1.03.45-.39.19-.58.64-.96.84-.13.06-.32.06-.45.06-.19.13-.58.39-.9.52-.13.06-.32,0-.45.13-.06.06-.13.26-.19.26-.13.13-.26.06-.45.13-.13.06-.58.39-1.1.26-.38.32-.84.32-1.29.52-.39.13-.84.32-1.22.52-.19.06-.45.19-.64.26-.13.06-.32,0-.45,0-.06,0-.13.19-.19.19-.19.06-.45.06-.71.13-.19,0-.52.13-.64.19-.26,0-.26-.13-.39-.13-.26,0-.71.26-1.09,0-.32.13-.64.39-1.16.45-.26.06-.71-.06-1.09,0-.26,0-.32.13-.64.19-.45-.13-1.48.26-1.87.26s-.84-.13-1.16-.26c-.32-.06-.64-.06-.71-.39-.39-.06-.26.39-.71.26-.19-.26-.45-.45-.84-.52-.26-.06-.39-.19-.45.19-.19.19-.26-.06-.58,0-.19.32-.84.26-1.09.58-.97-.19-1.74.13-2.71.06-.13-.13-.39-.39-.58-.64-.19-.19-.39-.51-.39-.71-.06-.52.06-.9.19-1.35-.06-.32-.13-.58-.13-.84-.06-.32.13-.45.19-.77,0-.13-.13-.19-.06-.39,0-.64.26-1.74.26-2.57,0-1.03-.06-2.25-.13-3.48-.06-.13.06-.06,0-.26-.13-.38-.06-1.16-.06-1.67-.06-1.35,0-3.48,0-5.09,0-.26.13-.32.13-.45-.06-.26-.19-.52-.19-.84s.13-.64.13-1.03c0-.84-.13-1.93.06-2.9-.13-.32-.32-.58-.45-.96,0-.13.13-.13.13-.26,0-.32-.19-1.03-.19-1.61.13-.26.06-.26.06-.26,0-.71.26-1.35-.19-1.93.26-.97-.06-1.93-.06-2.9,0-.52.06-.9.06-1.42,0-.19.13-.39.13-.45s-.13-.19-.13-.39c0-.26.13-.32.13-.45,0-.32-.19-.58-.19-.9,0-.39.19-.9.32-1.22.19-.45.06-1.09.06-1.67,0-.32.13-.64.13-.96,0-.64-.13-1.29-.06-1.87,0-.32.19-.64.19-.9.06-.45-.26-.97.06-1.35.06-.39-.52-.52-.19-.84.06-.32.26-.58.45-.84.52-.06.64-.06.9.26.32-.13.45-.45.77-.51.64-.13,1.61-.19,2.25-.19.45,0,.84.06,1.22.06.71-.06,1.35-.26,2-.26.32,0,.71.06,1.03.13.52,0,.97.06,1.48,0,.32-.13.39,0,.39,0,.52-.06.97-.13,1.35-.19.64,0,1.1.19,1.68.26.39.06.71.06,1.03.13s.64.26.97.32c.84.19,2-.06,2.77.52.26,0,.45-.06.71,0,.19.06.39.19.52.19.32.06.58-.13.84-.06s.58.26.84.32c.58.13,1.29,0,1.87.13.13.06.26.19.39.26.19.06.39.06.52.13.32.26.64.19.84.32.06,0,.13.13.19.19.64.39,1.48.97,2.19,1.48.06.13.13.26.26.32.32.26.52.32.71.64.51.58,1.16,1.29,1.74,1.93.26.19.52.39.71.64,1.03,1.03,1.68,2.25,2.32,3.35,0,.32.19.45.13.84.39.52.64,1.16.97,1.8.13.19.26.39.32.52.13.32.06.77.19,1.16.06.32.26.64.38.97.06.19,0,.39.06.58.13.38.52.9.58,1.35.06.19,0,.45,0,.64.06.32.26.64.32.96.06.97,0,2.12,0,3.09v.84Zm-6.7-3.15c-.06-.13-.06-.26-.06-.45-.06-.06-.19-.19-.19-.26-.06-.19,0-.39,0-.52-.06-.32-.13-.64-.19-.84-.06-.26-.26-.9-.32-.97-.13-.19-.32-.58-.38-.64-.39-.45-.45-1.22-.71-1.8-.06-.19-.19-.32-.26-.51-.13-.19-.19-.39-.19-.58-.32-.39-.84-.52-.84-1.16-.45-.19-.77-.64-1.03-.9-.06-.13-.13-.32-.19-.39s-.26-.13-.39-.26c-.13-.06-.19-.19-.32-.32-.26-.19-.52-.26-.58-.58-.97-.26-1.35-.97-2.25-1.22-.26-.26-.26-.71-.71-.77s-.9.06-1.35,0c-.39-.06-.64-.39-.97-.45-.26-.06-.51.13-.84.13-.32-.06-.64-.32-.9-.39-.84-.06-1.74.06-2.57,0-.71-.13-1.35-.32-2-.39-.19,0-.32.06-.51.06-.19.06-.39-.06-.52-.06-.19,0-.32.06-.52.06-.64-.06-.96,0-1.48,0-.32,0-.64-.19-.9-.13-.19,0-.51.19-.51.19-.13,0-.13-.13-.26-.13-.26.06-.64.13-.9.19-.45,1.61-.06,3.16-.32,4.77-.06.19-.19.39-.19.64-.06.26.06.71.06,1.1s-.13.84-.13,1.16c0,.26.13.64.19.97,0,.71-.13,1.48-.06,2.19.06.52.26,1.09.39,1.61.13.64.19,1.29.26,1.93.06,1.1-.19,2.06-.19,2.77,0,.39.13.64.13.96-.06.32-.19.64-.26,1.03s-.06.84-.13,1.22c-.19,1.67-.06,4.06-.64,5.22.45.77,0,1.67-.06,2.57,0,.39.13.77.13,1.16-.06.32-.26.58-.26.9,0,.39.19.64.19,1.03.45.06,1.03,0,1.35.06h.32c.52.06.96.26,1.42.26.19-.06.39-.19.64-.19.58-.19.96-.19,1.35-.32.52-.13.84-.19,1.16-.39.06-.06.26-.26.32-.32.13-.06.32,0,.52-.06.13-.06.26-.19.39-.19.9-.26,2-.32,2.64-.58.64-.26,1.22-.71,2.06-.58.45-.52,1.09-.39,1.67-.58.45-.13,1.09-.58,1.42-.71s.64-.26,1.03-.26c.9-1.16,2.38-1.67,3.09-3.09.39.06.39-.26.71-.26.9-1.67,2.25-2.83,2.71-4.96.19-.26.45-.45.64-.71-.13-.9.32-1.67.39-2.45,0-.51-.13-.77-.06-1.09,0-.26.19-.45.19-.71,0-.32-.13-.9-.19-1.03Z"/>
      <path class="cls-1" d="m835.73,934.69c-.06.26-.06.52-.13.71-.06.26-.38.51-.45.77-.06.06-.06.39-.13.39-.13.58.06,1.29-.26,2.06,0,.06-.13.32-.19.39-.13.26-.32.26-.45.64,0,.13,0,.26-.06.38-.06.06-.19.06-.26.13-.06.19-.32.64-.64.84,0,.19-.13.39-.06.71-.71.45-.71,1.22-1.22,1.93-.19.19-.19.26-.19.32-.32.26-.38.45-.51.58-.26.19-.52.26-.77.52-.13.13-.13.32-.19.45-.45.39-.96.71-1.16,1.29-.26.06-.52.19-.64.32-.13.06-.13.19-.26.32-.06.06-.19,0-.26.06-.13.06-.13.26-.26.32-.26,0-.19.19-.19.19-.32.19-.64.26-.84.38-.45.45-1.48.77-2,1.29-.26,0-.58.32-.64.13-.26.26-.39.51-.71.71-.38.26-1.03.19-1.16.71-.26,0-.45-.06-.52-.13-.51.45-1.03.84-1.93.9-.45.38-1.74.71-2.7.77-.39,0-.9-.06-1.22-.06-.52.06-.96.39-1.42.39-.32.06-.64-.13-1.03-.32-.13.13-.19,0-.39,0-.51.06-1.03.26-1.54.26-.52.06-1.03-.06-1.48-.13-.19.13-1.03,0-1.22-.19-.58.39-1.16-.13-1.74-.26-.84-.26-1.74,0-2.32-.58-.97,0-1.68-.26-2.12-.77-.26.06-.45-.06-.64-.13-.45-.13-.64-.26-1.03-.52-.06-.06-.13-.19-.19-.26-.13-.06-.38-.13-.64-.32l-.19-.19c-.19-.13-.39-.19-.52-.32-.26-.26-.45-.64-.71-.84-.45,0-.71-.26-1.09-.64-.39-.32-1.09-.77-1.22-1.29-.52-.13-1.1-.32-1.35-.64-.06-.32-.26-.26-.39-.45-.26-.26-.64-.64-.9-.97-.13-.06-.13-.32-.13-.58-.26-.32-.52-.52-.84-.77-.06-.19-.19-.39-.26-.64-.38-.32-.77-.77-1.03-1.22-.64-.45-.58-1.54-1.29-1.93.06-.71-.45-1.1-.71-1.67-.19-.45-.19-.97-.26-1.48-.06-.26-.32-.58-.32-.9,0-.13.13-.19.13-.32-.06-.26-.26-.58-.32-.84-.06-.32,0-.71-.06-1.03l-.19-.97c0-.26.13-.71-.19-.9.06-.26.13-.58.13-.84s-.13-.39-.19-.64c.13-.26,0-.32,0-.32.06-.58.19-.97.06-1.68-.19-.32.06-.64,0-1.22,0-.19-.13-.39-.19-.64,0-.26,0-.71.06-1.03,0-.32.19-.58.19-.9.06-.19-.06-.39-.06-.64,0-.19.13-.39.13-.52-.06-.26-.19-.52-.19-.71,0-.45.13-.9.19-1.35.13-.45.13-1.03.26-1.35.06-.19.26-.32.32-.51.26-.52.52-1.16.77-1.74.32-.84.39-1.8,1.09-2.25.06-.64.39-1.03.52-1.55,0-.32.32-.32.45-.45-.06-.39.13-.52.26-.84.06-.19.32-.39.38-.58.06-.13.06-.45.13-.64s.32-.19.19-.52c.45-.19.71-.64.9-1.1.45-.19.77-.51.96-1.03.52-.06.52-.64,1.16-.58.13-.26.32-.39.58-.52.13-.26.45-.26.58-.51.64-.06,1.03-.52,1.55-.77.51-.26,1.09-.32,1.61-.71.77.06,1.16-.19,1.54-.51.58.13,1.09-.06,1.54-.26.64-.19,1.8-.45,2.64-.64.71-.19,1.29-.26,2-.52.13,0,.32,0,.52-.06.13-.06.13-.19.32-.19.19-.06.45,0,.71,0,.19,0,.39.19.64.19.06.06.13-.06.26-.06s.13.06.26.13c.13,0,.38.06.58.06.19.06.32.19.52.26.9.19,1.61.06,2.06.58.58-.26,1.48-.06,2.19-.06.39,0,.45.32.71.39.45,0,.9.06,1.29.19.13,0,.26.13.39.19.19.06.45-.06.64,0,.26.06.58.26.77.32.77.26,1.42.26,1.8.9.32,0,.26-.32.71-.19.71.32,1.67.32,2.45.64.13.06.13.19.26.26.13,0,.19.06.26.06.26.13.38.26.51.32.39.19.9.26.97.64.32,0,.64.19.9.32.39.26.71.64,1.16.97.13.13.19.32.39.45.13.13.39.13.51.19.26.26.39.58.58.84.71.06.9.58,1.48.71.19.32.39.58.71.9,0,.06,0,.19.06.26.13.06.32.13.39.19.13.13.19.39.32.64.13.26.19.58.39.9.26.45.84,1.03.71,1.93.39.26.52.84.77,1.35.06.06.06.26.13.32.26.26.19.52.26.71.13.39.32,1.09.38,1.67.06.32-.06.58,0,.84.13.84.52,1.61.9,2.19-.06,1.03,0,1.8-.06,2.83-.06,1.1.26,2.32.19,3.73,0,1.61-.45,3.48-.9,4.96Zm-6.12-10.62c0-.39.06-.84,0-1.16s-.26-.58-.38-.9c-.06-.39.26-.52,0-.77-.26-.52-.45-1.22-.64-1.87-.06-.19-.26-.26-.39-.38-.19-.19-.26-.32-.45-.58-.06-.13-.26-.26-.39-.39-.13-.26-.13-.45-.32-.64-.52-.58-1.35-1.03-2.12-1.61-.39-.26-.64-.58-1.03-.84-.13-.13-.45-.19-.58-.32-.26-.19-.38-.45-.51-.58-.71-.32-1.61-.19-2.19-.84-1.1.13-2.12-.58-3.54-.52-.26-.06-.38-.26-.71-.32-.58.19-.97,0-1.42-.13-.32-.06-.58-.19-.84-.26-.58-.13-1.16-.39-1.67-.45-.13,0-.26.13-.32.13-.45.06-.9-.26-1.35-.26-.38,0-.9.19-1.22.19,0,0-.13-.19-.19-.19-.13-.06-.32,0-.45,0-.64-.13-1.74-.13-2.25-.26-.38-.19-.84-.19-1.16-.45-.26.32-.39.39-.58.51-.58.19-.84.64-1.29.9-.39.19-.9.26-1.29.45-.19.13-.32.39-.52.52-.19.19-.45.26-.64.38-.39.32-.64.84-1.16.97-.19.39-.58.84-.84,1.22-.32.39-.58.9-1.09,1.1,0,.64-.39.96-.45,1.54.06.19-.19.13-.26.19-.26.52-.32.77-.45,1.16-.06.19-.13.32-.26.52-.13.32-.38.58-.51.9s-.26.64-.45.9c-.32.64-.52.9-.64,1.67-.19.84-.45,2-.39,2.51.06.13-.13.26-.13.26,0,.32.06.58,0,.84,0,.26-.19.45-.19.64-.26,1.16,0,2.25.13,3.41.06.9-.06,1.8.06,2.38,0,.26.26.58.39.84.06.39.06.71.19,1.1,0,.06.13.26.19.38.13.52.26,1.22.45,1.48.26.32.58.51.84.84.26.32.39.71.58,1.03.13.19.32.26.39.45.13.19.19.38.32.51.26.32.58.52.84.84s.45.71.71,1.09c1.22.64,2.19,1.48,3.15,2.45,1.1.13,2.25.71,3.09,1.03.32.06.77.26,1.16.32.32,0,.64-.13,1.03-.13.77.06,1.29.38,1.93.51.71.06,1.42-.06,2.06.26.39-.26.64-.19,1.09-.13.77-.58,2-.26,3.03-.51.13-.06.19-.19.26-.19.19-.13.26-.06.45-.13.58-.26.96-.52,1.48-.71.26-.06.58-.19.84-.26.13-.06.13-.19.32-.32.13-.13.32-.13.52-.19.26-.13.52-.45.9-.38.26-.52.71-.71,1.29-.84.13-.32.39-.45.52-.58.26-.19.26-.06.32-.32.06-.13.38-.32.45-.38.32-.45.64-.9.97-1.22.06-.39.39-.45.52-.64.06-.45.26-.77.45-1.1.13-.39.45-.64.45-1.16.45-.13.45-.64.64-1.03,0-.06.13-.06.19-.19s.06-.26.13-.32c.13-.32.32-.58.45-.84.13-.32.26-.52.38-.77.13-.19.13-.45.26-.64.06-.19.26-.32.32-.52.06-.32,0-.77.13-1.16.19-.32.45-.58.52-1.09.06-.32-.13-.77-.06-1.16.06-.32.32-.71.45-1.09.13-.52.38-1.22.32-1.48,0-.13.13-.26.13-.32v-.71c.06-.39.26-.58.26-.9,0-.39-.19-.84-.19-1.29Z"/>
      <path class="cls-1" d="m869.22,912.6c-.19.19-.52.26-.64.58-.13.26-.26.51-.58.58-.26.64-.64,1.03-.96,1.54,0,.39-.39.32-.58.52-.13.9-.58,1.48-1.16,1.87-.51-.06-.96-.19-1.35-.32-.26-.26-.13-.77-.26-1.09-.19-.32-.39-.58-.52-.9-.19-.26-.45-.45-.64-.64-.06-.13-.06-.32-.19-.45-.06-.06-.32-.13-.39-.19-.19-.26-.32-.52-.52-.77-.19-.19-.39-.45-.58-.64-.06,0-.32.06-.32,0-.13-.26-.26-.26-.32-.32-.13-.06-.39-.26-.52-.32-.58-.19-1.54-.06-2.25-.13-.26,0-.52-.13-.77-.13-.19,0-.45.13-.71.19s-.52,0-.71.06c-.32.13-.58.52-.96.52-.13.19-.13.32-.19.52-.19.32-.71.64-.9,1.03-.06.19-.13.52-.19.84-.19.58-.51,1.67-.45,2.45,0,.97.45,1.61.64,2.45.32.19.39.45.58.71.26.26.39.58.77.64,0,.38.26.51.26.84.45.26.77.52,1.16.97.19.19.13.26.19.32.13.19.58.19.39.51.06.13.26.06.38.13.13.06.39.39.52.52.06.13.19.19.19.32.77.19,1.03.84,1.67,1.09.06.45.39.64.45,1.03.45-.06.45.32.97.26.13.39.51.51.84.71.06.13.26.26.39.32.52.39,1.03.71,1.54,1.22.13.26.39.38.52.51.06.06.06.19.19.32.06.06.19,0,.32.06.64.71,1.16,1.48,1.87,2.06.19.71.52,1.29.9,1.74.06.52.26.84.52,1.16-.06.84.26,1.29.52,1.8.19.45.32,1.09.26,1.54,0,.13.06.19.06.26,0,.13-.13.32-.06.52,0,.39.19.84.26,1.35,0,.13-.13.39-.13.58,0,.26.13.45.13.64-.06.51-.39,1.03-.19,1.54-.19.19-.39.45-.19.84-.06.32-.32.45-.45.71.06.39,0,.77-.13,1.03-.13.45-.39.96-.84,1.03-.06.19.13.19.06.32,0,.19-.32.19-.39.39-.06.06,0,.26,0,.32-.26.32-.97.84-1.29,1.22-.32.39-.77.77-1.16,1.22-.26.26-.58.64-.77.84-.19.13-.64.19-1.03.39-.06,0-.26.19-.45.26-.39.19-.84.32-1.54.38-.13.06-.45-.06-.64,0s-.26.19-.39.19c-.39,0-.71-.13-1.03-.19-.64.26-1.29.13-2.19,0-.45-.06-1.29-.06-1.74-.32-.26.06-.52.19-.77.32-.84-.26-1.74-.26-2.58-.51-.32-.06-.71-.32-1.03-.45-.39-.13-.9-.06-1.22-.19-.19-.13-.45-.39-.71-.58-.13,0-.13-.13-.19-.19-.39-.26-.77-.32-.97-.64-.84.13-.9-.64-1.61-.64-.19-.13-.06-.58-.19-.71-.39-.13-.45.13-.77.06-.13-.32-.32-.45-.45-.77-.19-.19-.64-.32-.97-.64-.06-.06-.06-.26-.19-.39-.06-.06-.26-.13-.32-.19,0-.06.06-.32,0-.32-.52-.45-.71-1.22-1.16-1.67v-.77c-.52-.97-1.29-1.61-1.29-3.03.26-.13.32-.45.51-.58.19-.19.52-.19.77-.32.45-.26,1.03-.32,1.22-.84.39,0,.77-.19,1.1-.39.13-.06.26-.19.39-.26.19-.13.32-.13.45-.19.26-.26.45-.51.71-.71.52.13.45-.13,1.03.19.51.32.84.96,1.03,1.67,0,.19,0,.45.06.52.13.32.45.64.71,1.09.32.52,1.22,1.35,1.87,1.8.06.06.19,0,.26.13.19.13.77.71,1.03.84.26.06.64.06,1.03.13.32.06.58.19.84.19,1.35.19,2.12.13,3.35-.19.64-.19,1.29-.39,1.8-.71.64-.52.96-.84,1.35-1.61.06-.19.06-.32.13-.45s.19-.13.19-.32c.06-.26.06-.64.13-1.03.06-.32.19-.71.26-.9,0-.64-.26-1.22-.32-1.87-.32-.45-.84-.77-.96-1.42-.71-.58-1.61-1.03-1.74-2.19-.26-.13-.58-.19-.84-.32,0-.84-.58-1.29-1.1-1.8-.19-.26-.26-.32-.51-.52-.06-.06,0-.19-.06-.26-.13-.06-.26-.19-.45-.26-.19-.26-.45-.45-.77-.64-1.03-.77-2-2.06-3.09-2.9-.06-.64-.52-1.03-.9-1.35-.19-.9-.58-1.68-1.16-2.25.06-.39-.13-.64-.32-1.03-.06-.13-.06-.32-.19-.52-.06-.06-.26-.26-.32-.32-.19-.64-.13-1.35-.45-2.06.06-.32.26-.58.26-.97,0-.26-.13-.39-.19-.64-.06-.19.06-.51-.19-.51.13-.58-.26-1.16-.32-1.74,0-.51.13-1.22.19-1.67,0-.13-.19-.19-.13-.39.06-.32.39-1.03.58-1.35.13-.45.26-.77.52-1.16.06-.13.13-.19.19-.32.26-.39.71-1.03.77-1.61.52-.32.52-.84.97-1.22.06-.06.26-.06.32-.13s.06-.26.13-.26c.13-.13.39-.26.52-.32.06-.06.13-.13.19-.19.32-.26.84-.58,1.29-.84.19-.06.39-.06.64-.19.19-.06.26-.26.39-.26.19-.06.39,0,.52,0,.13-.06.26-.19.32-.19.52-.13,1.16-.13,1.8-.19.45,0,.97-.06,1.54.06.32.06.58.26.9.32.64.06,1.29.06,2,0,.26.19.58.39.84.58.58.06,1.1.26,1.42.64.32.13.52-.26.64,0,.71.26,1.29.71,1.8,1.16.26.06.38.19.71.13.26.52.71.77,1.03,1.1h.64c.32.38.9.51,1.42.77.26.13.58.19.71.32.19.13.39.45.45.64.13.71-.52,1.09-.71,1.87Z"/>
    </g>
    <path class="cls-1" d="m766.73,413.44c-11.73-.25-23.04,12.29-23.4,25.91-.36,13.83,16.4,32.07,29.48,32.08,14.41.01,28.23-14.9,28.12-30.34-.1-15.46-14.68-27.25-34.2-27.65Zm21.75,34.92c-1.58,7.1-8.67,12.12-15.8,12.15-7.13.03-14.24-5-15.87-12.07-.62-2.72,3.56-3.87,4.18-1.15,1.2,5.23,6.39,8.91,11.68,8.89,5.29-.02,10.45-3.72,11.61-8.96.61-2.73,4.79-1.57,4.18,1.15Z"/>
    <path class="cls-1" d="m1063.66,514.03c-.5,14.95-5.3,36.63-19.54,55.37-17.17,22.6-37.65,25.81-60.75,19.28-8.96-2.53-16.66-8.76-21.03-18-10.82-22.85-12.09-46.16-3.56-69.91,3.41-9.49,7.73-18.57,14.03-26.6,4.27-5.45,6.11-12.25,8.29-18.52,8.08-23.25,39.84-29.56,59.88-10.17,16.99,16.43,23.45,37.26,22.69,68.55Zm-77.51,2.17c-4.93,12.85-3.84,24.91,1.06,36.85,1.14,2.77,2.26,5.49,5.26,6.84,6.35,2.86,19.07.47,24.04-4.71,4.33-4.51,7.75-9.74,10.92-15.08,2.58-4.34,1.96-5.61-3.08-6.32-7.16-1-13.75-3.46-19.98-6.98-5.89-3.33-11.7-6.79-18.23-10.6Zm19.9-37.26c-.53,15.53,11.54,23.03,20.87,24.66,5.41.94,6.08.34,6.49-5.2.82-10.97-4.56-19.92-9.81-28.76-4.48-7.54-11.07-7.25-15.85.14-1.88,2.91-2.3,5.98-1.7,9.15Z"/>
  </g>
  <g>
    <path class="cls-2" d="m170.49,817.55s4.88-64.03-41.99-85.04c-46.87-21.01-73.83-25.22-73.83-25.22,0,0,11.14,55.4,34.99,78.37,23.85,22.97,80.83,31.89,80.83,31.89Z"/>
    <path class="cls-4" d="m170.49,817.55s-3.58-13.37-33.22-42.85c-29.64-29.47-82.61-67.42-82.61-67.42l37.02,39.87-13.5-2.11s42.24,25.92,45.51,29.44c3.27,3.53-16.81,1.47-16.81,1.47,0,0,35.35,13.63,36.06,16,.7,2.38-10.93,3.44-10.93,3.44,0,0,30.63,13.42,38.48,22.14Z"/>
    <path class="cls-5" d="m170.49,817.55s-13.34-41.42-16.17-44.47c0,0,.04,9.43-2.88,8.73s-19.03-27.02-19.03-27.02c0,0,2.1,11.62-1.39,11.14-3.49-.48-33.84-40.53-33.84-40.53,0,0,4.98,11.34,1.81,12.96-3.16,1.62-44.32-31.08-44.32-31.08,0,0,55.51,48.84,71.88,62.8,16.37,13.96,43.94,47.47,43.94,47.47Z"/>
  </g>
  <g>
    <path class="cls-2" d="m869.37,817.7s63.08,12.04,89.22-32.18c26.14-44.21,33.35-70.53,33.35-70.53,0,0-56.3,4.85-81.81,25.97-25.5,21.12-40.76,76.74-40.76,76.74Z"/>
    <path class="cls-4" d="m869.37,817.7s13.69-2.05,46.31-28.19c32.62-26.14,76.27-74.52,76.27-74.52l-43.78,32.31,3.61-13.18s-30.49,39.06-34.36,41.92c-3.87,2.86.43-16.87.43-16.87,0,0-17.51,33.6-19.95,34.03s-2.19-11.25-2.19-11.25c0,0-16.78,28.93-26.32,35.75Z"/>
    <path class="cls-5" d="m869.37,817.7s42.66-8.6,46.01-11.07c0,0-9.37-1.02-8.35-3.84,1.02-2.82,28.98-15.87,28.98-15.87,0,0-11.79.78-10.91-2.64.87-3.41,44.07-29.08,44.07-29.08,0,0-11.83,3.67-13.08.34-1.25-3.33,35.86-40.55,35.86-40.55,0,0-54.76,49.68-70.47,64.38-15.71,14.7-52.1,38.33-52.1,38.33Z"/>
  </g>
  <g>
    <path class="cls-1" d="m847.83,717.9c3.18,16.47,3.35,41.39-7.55,65.44-13.14,29-34.74,37.64-61.64,36.26-10.43-.53-20.41-5.43-27.5-14.44-17.54-22.3-24.75-47.47-21.35-75.58,1.36-11.23,3.82-22.24,8.7-32.6,3.31-7.02,3.63-14.93,4.44-22.32,3.03-27.44,36.2-42.28,62.96-26.08,22.69,13.73,34.95,34.9,41.93,69.32Zm-84.25,21.72c-2.18,15.28,2.02,28.2,10.36,40.04,1.93,2.74,3.85,5.44,7.46,6.17,7.66,1.55,20.97-4.24,25.12-11.15,3.61-6.01,6.04-12.59,8.18-19.22,1.74-5.39.74-6.63-4.94-6.14-8.08.69-15.9-.35-23.59-2.65-7.27-2.17-14.49-4.51-22.59-7.04Zm12.47-45.73c3.3,17.12,18.38,22.31,28.99,21.76,6.15-.32,6.73-1.15,5.8-7.31-1.84-12.21-9.96-20.65-17.9-29.01-6.78-7.13-13.92-5.16-17.31,4.11-1.33,3.65-1.03,7.11.42,10.44Z"/>
    <path class="cls-1" d="m301.37,797.43c.12,5.99.25,4.42.35,9.98.14,8.37-5.13,16.06-13.14,18.51-4.72,1.44-9.56,1.71-14.47.9-19.56-3.24-37.84-10.18-55.2-19.53-14.14-7.62-22.75-19.87-28.3-34.75-6.88-18.43-8.83-37.44-7.55-56.85,3.12-47.47,45.57-85.1,93.04-82.67,13.65.7,17.26,4.11,19.89,18.32.39,2.13.79,5.65.91,7.81.13,2.28.27,4.56.4,6.83.5,8.38-6.17,15.45-14.56,15.45h-13.38c-2.33,0-4.24-1.87-4.25-4.2,0-.01,0-.03,0-.04-.05-11.26-3.48-13.4-13.3-8.61-13.29,6.48-22.47,16.42-29.07,30.05-9.57,19.76-8.07,39.2-2.33,59.1,2.26,7.85,6.73,14.38,13.72,18.98,8.38,5.51,17.06,10.3,26.99,12.42,0,0-.08.29,0,.31,14,4,38-2,40.26,8Z"/>
    <path class="cls-1" d="m721.07,798.23c.12,5.99.25,4.42.35,9.98.14,8.37-5.13,16.06-13.14,18.51-4.72,1.44-9.56,1.71-14.47.9-19.56-3.24-37.84-10.18-55.2-19.53-14.14-7.62-22.75-19.87-28.3-34.75-6.88-18.43-8.83-37.44-7.55-56.85,3.12-47.47,45.57-85.1,93.04-82.67,13.65.7,17.26,4.11,19.89,18.32.39,2.13.79,5.65.91,7.81.13,2.28.27,4.56.4,6.83.5,8.38-6.17,15.45-14.56,15.45h-13.38c-2.33,0-4.24-1.87-4.25-4.2,0-.01,0-.03,0-.04-.05-11.26-3.48-13.4-13.3-8.61-13.29,6.48-22.47,16.42-29.07,30.05-9.57,19.76-8.07,39.2-2.33,59.1,2.26,7.85,6.73,14.38,13.72,18.98,8.38,5.51,17.06,10.3,26.99,12.42,0,0-.08.29,0,.31,14,4,38-2,40.26,8Z"/>
    <path class="cls-1" d="m429.57,732.46c3.59,15.39,7.22,30.77,10.83,46.15.74.02,1.48.05,2.22.07,7.45-17.94,14.11-36.17,20.41-55.19l12.32-40.97c3.27-10.8,6.57-21.6,9.62-32.46,2.46-8.74,3.27-9.5,12.43-9.28,19.17.47,21.08,3.04,16.8,21.9-7.96,35.08-20.76,68.65-31.66,102.82-4.96,15.55-11.93,30.28-17.65,45.52-3.07,8.17-6.37,10.17-15.11,10.1-3.66-.03-7.31,0-10.97,0,0,.04,0,.07,0,.11-3.33,0-6.65-.01-9.98,0-9.65.04-12.26-1.54-15.14-10.96-4.96-16.21-8.8-32.7-11.99-49.35-6.81-35.57-15.77-70.66-24.13-105.87-.38-1.61-.9-3.2-1.3-4.81-.94-3.77.93-5.89,4.41-6.31,7.61-.91,15.26-.38,22.88.08,4.1.25,5.13,3.42,6.03,6.85,2.97,11.24,6.17,22.43,9.24,33.64l10.75,47.96Z"/>
    <path class="cls-1" d="m577.9,745.29c-1.27,23.05-2.5,46.09-3.83,69.14-.37,6.5-1.54,7.54-8.32,7.46-5.62-.06-11.24-.27-16.84-.7-4.9-.37-6.21-2-5.22-7.08,2.22-11.43,1.97-22.95,1.63-34.45-.26-8.97,1.28-17.7,2.42-26.5.3-2.35.68-4.63.44-7.04-.92-9.47-.84-9.64-10.63-11.07-3.67-.53-5.26-2.2-5.32-5.7,0-.3.01-.59,0-.89-1.03-18.53-.35-19.32,18.21-20.35,4.73-.26,9.48-.53,14.21-.47,7.42.1,11.94,3.61,12.5,11.06.67,8.82.16,17.73.16,26.6.2,0,.4,0,.6,0Z"/>
    <path class="cls-1" d="m550.38,642.32c-11.73-.25-23.04,12.29-23.4,25.91-.36,13.83,16.4,32.07,29.48,32.08,14.41.01,28.23-14.9,28.12-30.34-.1-15.46-14.68-27.25-34.2-27.65Zm21.75,34.92c-1.58,7.1-8.67,12.12-15.8,12.15-7.13.03-14.24-5-15.87-12.07-.62-2.72,3.56-3.87,4.18-1.15,1.2,5.23,6.39,8.91,11.68,8.89,5.29-.02,10.45-3.72,11.61-8.96.61-2.73,4.79-1.57,4.18,1.15Z"/>
    <path class="cls-1" d="m357.9,745.29c-1.27,23.05-2.5,46.09-3.83,69.14-.37,6.5-1.54,7.54-8.32,7.46-5.62-.06-11.24-.27-16.84-.7-4.9-.37-6.21-2-5.22-7.08,2.22-11.43,1.97-22.95,1.63-34.45-.26-8.97,1.28-17.7,2.42-26.5.3-2.35.68-4.63.44-7.04-.92-9.47-.84-9.64-10.63-11.07-3.67-.53-5.26-2.2-5.32-5.7,0-.3.01-.59,0-.89-1.03-18.53-.35-19.32,18.21-20.35,4.73-.26,9.48-.53,14.21-.47,7.42.1,11.94,3.61,12.5,11.06.67,8.82.16,17.73.16,26.6.2,0,.4,0,.6,0Z"/>
  </g>
  <g>
    <path class="cls-3" d="m672.39,237.31h119.49l-114.65-114.65c-12.73-12.73-29.65-19.74-47.66-19.74h-24.02l27.53,58,36.26,76.39h3.06Z"/>
    <path class="cls-3" d="m655.76,298.01v-44.08h-131.25v44.08c0,34.18,29.44,61.99,65.62,61.99s65.62-27.81,65.62-61.99Z"/>
    <path class="cls-3" d="m738.01,360.01c36.18,0,65.62-27.81,65.62-61.99v-44.08h-131.24v44.08c0,34.18,29.44,61.99,65.62,61.99Z"/>
    <polygon class="cls-3" points="650.92 237.31 614.66 160.91 587.13 102.92 519.08 102.92 524.2 237.31 524.51 237.31 650.92 237.31"/>
    <path class="cls-3" d="m442.26,360.01c36.18,0,65.62-27.81,65.62-61.99v-44.08h-131.25v44.08c0,34.18,29.44,61.99,65.62,61.99Z"/>
    <polygon class="cls-3" points="507.57 237.31 506.31 204.43 502.44 102.92 436.3 102.92 402.87 183.8 380.76 237.31 507.57 237.31"/>
    <path class="cls-3" d="m228.77,298.01c0,34.18,29.44,61.99,65.62,61.99s65.62-27.81,65.62-61.99v-44.08h-131.24v44.08Z"/>
    <path class="cls-3" d="m362.77,237.31l22.11-53.51,33.43-80.89h-29.78c-19.26,0-37.63,8.26-50.41,22.66l-99.17,111.73h123.82Z"/>
  </g>
  <path class="cls-1" d="m353.57,658.27c-1.15,12.25-3.62,23.95-14.77,31.99-7.25,5.22-10.06,5.65-15.02,2.25-5.61-3.84-7.77-10.5-5.42-16.9.44-1.19,1.06-2.34,1.77-3.4,3.66-5.41,5.55-11.47,7.32-17.6,2.63-9.12,7.22-12.35,15.45-11.05,7.37,1.17,11.09,6.29,10.67,14.71Z"/>
</svg>